<?xml version="1.0" standalone="no"?>
<!DOCTYPE svg PUBLIC "-//W3C//DTD SVG 20010904//EN"
 "http://www.w3.org/TR/2001/REC-SVG-20010904/DTD/svg10.dtd">
<svg version="1.0" xmlns="http://www.w3.org/2000/svg"
 width="96.000000pt" height="96.000000pt" viewBox="0 0 96.000000 96.000000"
 preserveAspectRatio="xMidYMid meet">
<metadata>
Created by potrace 1.14, written by Peter Selinger 2001-2017
</metadata>
<g transform="translate(0.000000,96.000000) scale(0.100000,-0.100000)"
fill="#000000" stroke="none">
<path d="M375 788 c-63 -23 -175 -140 -175 -183 0 -3 124 -5 275 -5 222 0 275
3 275 13 0 30 -66 111 -118 145 -52 35 -61 37 -141 39 -47 1 -99 -3 -116 -9z"/>
<path d="M182 460 c7 -91 58 -184 128 -232 30 -21 70 -41 88 -44 l32 -6 0 171
0 171 -126 0 -126 0 4 -60z"/>
<path d="M507 513 c-4 -3 -7 -80 -7 -170 0 -123 3 -163 13 -164 56 -5 137 39
187 102 44 55 70 129 70 196 l0 43 -128 0 c-71 0 -132 -3 -135 -7z"/>
</g>
</svg>
