<svg id="draw.id" overflow="visible" v:layers="{&quot;default&quot;:{&quot;name&quot;:&quot;Default&quot;,&quot;print&quot;:1,&quot;display&quot;:1,&quot;publish&quot;:1}}" v:ver="2" x="500.5" xmlns="http://www.w3.org/2000/svg" xmlns:v="http://vecta.io" xmlns:xlink="http://www.w3.org/1999/xlink" y="500.5" v:stencils="{&quot;0&quot;:{&quot;id&quot;:&quot;stencil_65&quot;,&quot;expand&quot;:0,&quot;show_name&quot;:1}}"><style xmlns="http://www.w3.org/1999/xhtml"><![CDATA[#draw\.id{stroke:#000;stroke-linecap:round;stroke-linejoin:round;fill:#fff;fill-rule:evenodd;font-family:Roboto;font-size:14px;text-anchor:middle}#draw\.id text{paint-order:stroke;white-space:pre}#draw\.id .Text\.cls{stroke:none}]]></style><defs><style type="text/css">@import url('https://fonts.googleapis.com/css?family=Roboto+Condensed:400,400i,700,700i');@import url('https://fonts.googleapis.com/css?family=Roboto:400,400i,700,700i');@import url('https://fonts.googleapis.com/css?family=Cousine:400,400i,700,700i');@import url('https://fonts.googleapis.com/css?family=Anonymous+Pro:400,400i,700,700i');@import url('https://fonts.googleapis.com/css?family=Lato:400,400i,700,700i');@import url('https://fonts.googleapis.com/css?family=Open+Sans:400,400i,700,700i');</style></defs><title xmlns="http://www.w3.org/1999/xhtml">Untitled drawing</title><desc xmlns="http://www.w3.org/1999/xhtml"></desc><svg height="494.4" id="kzdj8yue3d" overflow="visible" v:setup="{&quot;paper&quot;:&quot;CUSTOM&quot;,&quot;unit&quot;:&quot;px&quot;,&quot;scale&quot;:{&quot;from&quot;:&quot;1&quot;,&quot;to&quot;:&quot;1&quot;},&quot;width&quot;:400,&quot;height&quot;:412,&quot;margin&quot;:{&quot;top&quot;:&quot;0&quot;,&quot;bottom&quot;:&quot;0&quot;,&quot;left&quot;:&quot;0&quot;,&quot;right&quot;:&quot;0&quot;}}" viewBox="0 0 400 412" width="480"><g id="l61hxut4jj" class="Group.cls" transform="translate(0 0)" v:abox="{&quot;x&quot;:0,&quot;y&quot;:0,&quot;width&quot;:18,&quot;height&quot;:18}"><g class="Prim.cls"><g id="l61hxuptj9" transform="translate(4.283999244689937 2.9332344185139942)" class=""><path d="M 0.54 0.0024 C 0.4056 0.0214 0.4151 -0.1286 0.3954 2.2708 C 0.3534 7.3645 0.3524 7.8998 0.3849 7.9608 C 0.435 8.0549 0.5378 8.0516 0.6174 7.9532 C 0.6357 7.9307 0.6613 7.9122 0.6743 7.9122 C 0.6873 7.9122 0.7778 7.876 0.8755 7.8317 C 0.9731 7.7874 1.1016 7.7292 1.161 7.7024 C 1.2204 7.6756 1.35 7.6167 1.449 7.5715 C 1.548 7.5264 1.6695 7.4713 1.719 7.449 C 1.9265 7.3559 2.0516 7.2993 2.196 7.2334 C 2.2802 7.195 2.4138 7.135 2.493 7.0999 C 2.5722 7.0649 2.6606 7.0255 2.6894 7.0123 C 2.761 6.9797 2.7777 6.9897 2.8421 7.1044 C 2.8728 7.1591 2.9266 7.251 2.9618 7.3087 C 2.9969 7.3665 3.0352 7.4354 3.0468 7.4618 C 3.0584 7.4883 3.0742 7.5099 3.082 7.5099 C 3.0897 7.5099 3.096 7.5168 3.096 7.5252 C 3.096 7.5336 3.1487 7.629 3.213 7.7373 C 3.2774 7.8456 3.33 7.9375 3.33 7.9415 C 3.33 7.9456 3.3584 7.992 3.393 8.0446 C 3.4277 8.0973 3.456 8.1431 3.456 8.1465 C 3.456 8.1499 3.5087 8.2413 3.573 8.3496 C 3.6374 8.4578 3.69 8.5497 3.69 8.5538 C 3.69 8.5579 3.7183 8.6042 3.753 8.6569 C 3.7877 8.7095 3.816 8.7565 3.816 8.7613 C 3.816 8.7662 3.835 8.7994 3.8582 8.8353 C 3.8813 8.8712 3.9272 8.9478 3.9601 9.0055 C 3.9929 9.0633 4.038 9.142 4.0601 9.1805 C 4.1607 9.3552 4.3174 9.3694 4.599 9.2292 C 4.698 9.18 4.8397 9.1095 4.914 9.0726 C 4.9883 9.0357 5.0531 9.0016 5.058 8.9967 C 5.063 8.9919 5.1237 8.9608 5.193 8.9278 C 5.2623 8.8948 5.3231 8.8632 5.328 8.8577 C 5.333 8.8523 5.3856 8.8244 5.445 8.7958 C 5.5044 8.7672 5.6907 8.672 5.859 8.5843 C 6.0273 8.4965 6.2744 8.3694 6.408 8.3018 C 6.7716 8.1178 6.9649 8.0187 7.065 7.9649 C 7.1145 7.9384 7.1996 7.8945 7.254 7.8676 C 7.3085 7.8406 7.3736 7.8049 7.3987 7.7881 C 7.4238 7.7714 7.4724 7.7507 7.5067 7.742 C 7.6797 7.6985 7.6012 7.4698 7.2904 7.1127 C 7.2803 7.1011 7.272 7.0867 7.272 7.0808 C 7.272 7.0749 7.2619 7.0593 7.2495 7.0461 C 7.2371 7.0329 7.1379 6.8959 7.029 6.7417 C 6.8416 6.4764 6.3882 5.8422 6.3587 5.8042 C 6.3512 5.7945 6.2969 5.7176 6.238 5.6333 C 6.1171 5.4602 6.116 5.4679 6.273 5.3847 C 6.3225 5.3584 6.4156 5.3074 6.48 5.2713 C 6.6339 5.185 6.7548 5.1193 6.876 5.056 C 6.9305 5.0276 6.9831 4.9982 6.993 4.9907 C 7.0029 4.9833 7.0434 4.9596 7.083 4.938 C 7.1226 4.9165 7.2563 4.8437 7.38 4.7761 C 7.5038 4.7086 7.6415 4.6338 7.686 4.6099 C 7.7305 4.586 7.7751 4.5604 7.785 4.553 C 7.8108 4.5338 7.9868 4.4384 8.082 4.392 C 8.1266 4.3702 8.1737 4.3426 8.1868 4.3306 C 8.1999 4.3186 8.2211 4.3087 8.2339 4.3087 C 8.2467 4.3087 8.2787 4.2772 8.305 4.2386 C 8.3784 4.1308 8.308 4.0288 8.0806 3.914 C 8.0071 3.8769 7.943 3.8423 7.938 3.8371 C 7.9331 3.8319 7.8885 3.8074 7.839 3.7826 C 7.7895 3.7578 7.6923 3.7074 7.623 3.6706 C 7.4468 3.5772 7.3084 3.5034 7.245 3.4693 C 7.2153 3.4533 7.1384 3.4135 7.074 3.3807 C 7.0097 3.348 6.953 3.3171 6.948 3.3121 C 6.9431 3.307 6.8823 3.2747 6.813 3.2402 C 6.6476 3.1579 6.4095 3.0336 6.3582 3.0027 C 6.3358 2.9892 6.2589 2.948 6.1872 2.9112 C 6.1156 2.8743 6.0205 2.8246 5.976 2.8007 C 5.9315 2.7767 5.8383 2.7271 5.769 2.6905 C 5.6997 2.6539 5.6066 2.6044 5.562 2.5806 C 5.5175 2.5568 5.4486 2.5217 5.409 2.5027 C 5.3694 2.4836 5.2925 2.4425 5.238 2.4112 C 5.1835 2.38 5.0702 2.3192 4.986 2.2762 C 4.778 2.1698 4.488 2.0166 4.32 1.9244 C 4.2854 1.9054 4.1969 1.8589 4.1234 1.8212 C 4.05 1.7835 3.9488 1.7306 3.8984 1.7038 C 3.8481 1.6771 3.7521 1.6261 3.685 1.5906 C 3.6178 1.5552 3.5368 1.5121 3.505 1.4949 C 3.4731 1.4776 3.3944 1.4368 3.33 1.404 C 3.2656 1.3713 3.209 1.3401 3.204 1.3347 C 3.1991 1.3293 3.1383 1.2972 3.069 1.2633 C 2.9576 1.2088 2.8998 1.1784 2.6725 1.0547 C 2.6424 1.0384 2.5533 0.9914 2.4745 0.9503 C 2.3955 0.9092 2.2946 0.8559 2.25 0.8319 C 2.2055 0.8079 2.1083 0.7566 2.034 0.718 C 1.9598 0.6793 1.8626 0.6281 1.818 0.6042 C 1.7734 0.5803 1.6858 0.5343 1.6233 0.5019 C 1.5608 0.4695 1.4757 0.4242 1.4343 0.4012 C 1.3929 0.3782 1.2983 0.3281 1.224 0.2899 C 0.9573 0.1524 0.836 0.0883 0.7763 0.0533 C 0.7096 0.014 0.6098 -0.0075 0.54 0.0024 M 3.9311 8.3248 C 3.948 8.3675 3.9443 8.3732 3.915 8.3496 C 3.8851 8.3254 3.8792 8.2971 3.9041 8.2971 C 3.9129 8.2971 3.9251 8.3095 3.9311 8.3248 M 0 10.5012 L 0 11.1834 L 5.31 11.1834 L 10.62 11.1834 L 10.62 10.5012 L 10.62 9.819 L 5.31 9.819 L 0 9.819 L 0 10.5012" stroke="none" stroke-linejoin="miter" stroke-linecap="butt" fill="#fbfbfc" stroke-width="1.0000000238418927"/></g><g id="l61hxuq1ja" transform="translate(0 0)" class=""><path d="M 0.00001 9 L 0 18 L 9 18 L 18 18 L 18 9 L 18 0 L 9 0 L 0 0 L 0 9 M 4.977 2.9165 C 5.0067 2.9222 5.0351 2.9314 5.04 2.9372 C 5.045 2.9428 5.1017 2.9735 5.166 3.0053 C 5.2303 3.037 5.3154 3.0819 5.355 3.1049 C 5.3946 3.128 5.4878 3.1767 5.562 3.2132 C 5.6362 3.2498 5.701 3.2837 5.706 3.2885 C 5.7109 3.2934 5.7792 3.3289 5.8577 3.3673 C 5.9362 3.4058 6.0091 3.4454 6.0197 3.4553 C 6.0303 3.4652 6.0876 3.4967 6.147 3.5251 C 6.2064 3.5536 6.2591 3.5818 6.264 3.5878 C 6.269 3.5939 6.2912 3.6043 6.3135 3.6111 C 6.3358 3.6178 6.354 3.6307 6.354 3.6397 C 6.354 3.6486 6.3686 3.656 6.3864 3.656 C 6.4042 3.656 6.4265 3.6633 6.4359 3.6723 C 6.4453 3.6813 6.5056 3.7139 6.57 3.7447 C 6.6344 3.7755 6.6911 3.8055 6.696 3.8114 C 6.701 3.8173 6.7374 3.8376 6.777 3.8564 C 6.8166 3.8752 6.8703 3.9046 6.8964 3.9217 C 6.9224 3.9388 7.0277 3.9953 7.1304 4.0472 C 7.233 4.0992 7.3616 4.1643 7.416 4.1918 C 7.4705 4.2194 7.5177 4.2479 7.521 4.2551 C 7.5243 4.2623 7.5366 4.2682 7.5483 4.2682 C 7.56 4.2682 7.6262 4.3006 7.6953 4.3401 C 7.8178 4.4102 7.9314 4.4703 8.244 4.6307 C 8.4467 4.7347 8.5032 4.765 8.514 4.7755 C 8.519 4.7803 8.5595 4.8016 8.604 4.8228 C 8.6925 4.865 8.8237 4.9366 8.838 4.9504 C 8.843 4.9552 8.9037 4.9867 8.973 5.0204 C 9.0423 5.0541 9.1031 5.0858 9.108 5.0909 C 9.113 5.0961 9.1697 5.1256 9.234 5.1566 C 9.2983 5.1876 9.3956 5.2374 9.45 5.2673 C 9.5463 5.3201 9.7103 5.4088 9.783 5.4474 C 9.8028 5.4579 9.823 5.4704 9.828 5.4752 C 9.8329 5.48 9.8937 5.5109 9.963 5.5439 C 10.0323 5.5768 10.0931 5.6086 10.098 5.6144 C 10.103 5.6202 10.1597 5.6503 10.224 5.6812 C 10.3485 5.741 10.4792 5.8106 10.494 5.8251 C 10.5032 5.834 10.5889 5.8783 10.845 6.0066 C 10.9242 6.0463 10.993 6.0827 10.998 6.0875 C 11.0029 6.0923 11.0319 6.1088 11.0624 6.1242 C 11.2369 6.2127 11.4775 6.3392 11.493 6.3507 C 11.5029 6.358 11.5758 6.3973 11.655 6.4379 C 11.9092 6.5684 12.0493 6.6414 12.1203 6.6804 C 12.1583 6.7014 12.2595 6.755 12.345 6.7995 C 12.7491 7.0101 12.7523 7.1579 12.357 7.3652 C 12.2199 7.4371 12.1764 7.4613 12.168 7.4703 C 12.1631 7.4757 12.078 7.5238 11.979 7.5774 C 11.88 7.6309 11.7707 7.6914 11.736 7.7118 C 11.7013 7.7322 11.6446 7.7628 11.61 7.7797 C 11.5754 7.7966 11.543 7.8145 11.538 7.8194 C 11.5331 7.8243 11.4967 7.844 11.4573 7.8631 C 11.4178 7.8823 11.349 7.9221 11.3043 7.9515 C 11.2596 7.9809 11.1582 8.0395 11.079 8.0816 C 10.9998 8.1237 10.8905 8.1871 10.836 8.2224 C 10.7816 8.2578 10.682 8.3126 10.6148 8.3443 C 10.4701 8.4126 10.4669 8.4164 10.501 8.4791 C 10.5255 8.5241 10.7944 8.9033 10.8357 8.9512 C 10.8458 8.9628 10.854 8.9805 10.854 8.9905 C 10.854 9.0005 10.8601 9.0087 10.8675 9.0088 C 10.8749 9.0088 10.9094 9.0501 10.944 9.1005 C 10.9787 9.151 11.0657 9.2733 11.1375 9.3722 C 11.2093 9.4713 11.268 9.5598 11.268 9.5691 C 11.268 9.5784 11.2743 9.586 11.2821 9.586 C 11.2899 9.586 11.3117 9.6116 11.3307 9.6429 C 11.3497 9.6741 11.3718 9.7076 11.3799 9.7172 C 11.4047 9.7468 11.7799 10.2683 11.799 10.2998 C 11.8089 10.3161 11.8211 10.3334 11.8262 10.3382 C 11.9611 10.4669 11.945 10.7055 11.8014 10.7055 C 11.7655 10.7055 11.6316 10.7772 11.4921 10.8711 C 11.4322 10.9114 11.3593 10.9563 11.3301 10.9708 C 11.0358 11.1172 10.7647 11.246 10.728 11.2568 C 10.7032 11.2641 10.679 11.2754 10.674 11.2818 C 10.6691 11.2884 10.6083 11.3208 10.539 11.3538 C 10.4697 11.3869 10.4103 11.4199 10.407 11.4271 C 10.4037 11.4343 10.3931 11.4402 10.3834 11.4402 C 10.3738 11.4402 10.329 11.4676 10.284 11.5009 C 10.239 11.5343 10.116 11.602 10.0106 11.6513 C 9.8159 11.7425 9.6968 11.8003 9.072 12.1072 L 8.721 12.2797 L 8.586 12.2792 C 8.485 12.2788 8.4419 12.2711 8.4148 12.2487 C 8.3746 12.2153 8.2835 12.0747 8.1913 11.9038 C 8.1757 11.8749 8.1589 11.8474 8.1538 11.8426 C 8.1488 11.8378 8.1285 11.8023 8.1088 11.7638 C 8.0891 11.7254 8.0685 11.6899 8.0631 11.6851 C 8.0576 11.6803 8.026 11.6292 7.9928 11.5714 C 7.8727 11.3624 7.8427 11.3122 7.7634 11.1859 C 7.7516 11.167 7.716 11.1044 7.6844 11.0466 C 7.6527 10.9889 7.6077 10.9143 7.5844 10.8808 C 7.5611 10.8473 7.542 10.8115 7.542 10.8012 C 7.542 10.7909 7.5322 10.773 7.5203 10.7614 C 7.4988 10.7405 7.4357 10.6349 7.3248 10.4344 C 7.2929 10.3767 7.2477 10.302 7.2244 10.2685 C 7.2011 10.235 7.182 10.2002 7.182 10.1912 C 7.182 10.1822 7.1711 10.1623 7.1577 10.1471 C 7.1394 10.1264 7.0635 9.9978 7.0458 9.9576 C 7.0447 9.9552 7.0203 9.9643 6.9914 9.9779 C 6.9626 9.9915 6.8742 10.0317 6.795 10.0672 C 6.7158 10.1027 6.611 10.1507 6.5619 10.1738 C 6.513 10.1969 6.4624 10.2157 6.4494 10.2157 C 6.4366 10.2157 6.426 10.2221 6.426 10.23 C 6.426 10.2378 6.3956 10.2555 6.3585 10.2693 C 6.3214 10.283 6.0885 10.3934 5.841 10.5145 C 5.5935 10.6356 5.3748 10.7397 5.355 10.7459 C 5.3352 10.752 5.3069 10.7644 5.292 10.7735 C 5.2772 10.7825 5.2164 10.8115 5.157 10.8378 C 5.0976 10.8642 4.9952 10.9121 4.9294 10.9443 C 4.7853 11.0149 4.7358 11.0174 4.6739 10.9572 C 4.6018 10.8872 4.6031 10.9567 4.6264 8.1657 C 4.6384 6.7196 4.6522 4.9756 4.6569 4.2901 C 4.6619 3.5682 4.6724 3.0437 4.6818 3.0437 C 4.6907 3.0437 4.698 3.025 4.698 3.0021 C 4.698 2.937 4.8172 2.8743 4.896 2.8981 C 4.9109 2.9026 4.9473 2.9109 4.977 2.9165 M 14.7197 12.7287 L 14.9224 12.7401 L 14.9177 13.4414 L 14.913 14.1429 L 9.594 14.1429 L 4.275 14.1429 L 4.2703 13.4398 L 4.2656 12.7368 L 4.3333 12.73 C 4.4509 12.718 14.5072 12.7168 14.7197 12.7287" stroke="none" stroke-linejoin="miter" stroke-linecap="butt" fill="#04acf4" stroke-width="1.0000000238418927"/></g><g id="l61hxuqejb" transform="translate(4.610921765713466 3.043731778425657)" class=""><path d="M 0.0593 0.0219 C 0.0546 0.0339 0.0528 0.4452 0.0554 0.9359 L 0.0601 1.828 L 0.0691 0.914 C 0.074 0.4113 0.0758 0 0.073 0 C 0.0702 0 0.0641 0.0098 0.0593 0.0219 M 1.2391 0.3402 C 1.2391 0.345 1.2634 0.3612 1.2931 0.3761 C 1.3228 0.391 1.3471 0.3993 1.3471 0.3945 C 1.3471 0.3897 1.3228 0.3735 1.2931 0.3586 C 1.2634 0.3437 1.2391 0.3354 1.2391 0.3402 M 0.0408 3.3761 C 0.0408 3.5926 0.0433 3.6811 0.0465 3.5729 C 0.0497 3.4647 0.0497 3.2875 0.0465 3.1793 C 0.0433 3.0711 0.0408 3.1596 0.0408 3.3761 M 7.8991 3.8597 C 7.8991 3.8691 7.9254 3.9 7.9576 3.9282 L 8.0161 3.9796 L 7.9621 3.9185 C 7.9324 3.8848 7.9061 3.854 7.9036 3.8499 C 7.9011 3.8459 7.8991 3.8503 7.8991 3.8597 M 6.5761 4.9421 C 6.5365 4.9658 6.5112 4.9853 6.52 4.9853 C 6.5384 4.9854 6.6571 4.9162 6.6571 4.9053 C 6.6571 4.8942 6.6535 4.8958 6.5761 4.9421 M 6.1261 5.1953 C 6.0964 5.2144 6.0802 5.23 6.0901 5.2298 C 6.1081 5.2295 6.206 5.1614 6.1891 5.1609 C 6.1841 5.1607 6.1558 5.1762 6.1261 5.1953 M 0.0231 6.3149 C 0.0231 6.6372 0.0256 6.769 0.0285 6.6079 C 0.0315 6.4467 0.0315 6.183 0.0285 6.0219 C 0.0256 5.8607 0.0231 5.9926 0.0231 6.3149 M 6.2235 5.9446 C 6.2332 5.9622 6.2553 5.9878 6.2726 6.0014 C 6.292 6.0168 6.2876 6.0045 6.2611 5.9694 C 6.2139 5.9066 6.1961 5.895 6.2235 5.9446 M 0.0004 7.5339 C -0.0014 7.6801 0.0032 7.8034 0.0106 7.8078 C 0.018 7.8123 0.022 7.7321 0.0194 7.6296 C 0.0109 7.298 0.0038 7.2621 0.0004 7.5339 M 0.779 7.6347 C 0.7453 7.6592 0.7455 7.6597 0.7848 7.6501 C 0.8073 7.6446 0.83 7.6332 0.8354 7.6247 C 0.8506 7.6008 0.8177 7.6066 0.779 7.6347 M 0.4381 7.7854 C 0.4084 7.8039 0.3709 7.8191 0.3548 7.8192 C 0.3387 7.8192 0.3144 7.8323 0.3008 7.8483 C 0.2787 7.8743 0.2799 7.8754 0.3121 7.8594 C 0.3319 7.8495 0.3926 7.8212 0.4471 7.7964 C 0.5015 7.7717 0.5339 7.7515 0.5191 7.7516 C 0.5042 7.7517 0.4678 7.7669 0.4381 7.7854 M 5.2978 8.6082 C 5.1884 8.6643 5.1771 8.6864 5.2846 8.6342 C 5.3366 8.609 5.3791 8.5845 5.3791 8.5799 C 5.3791 8.5671 5.3753 8.5685 5.2978 8.6082 M 3.9751 9.2187 L 3.8581 9.2301 L 3.9661 9.2319 C 4.0255 9.2329 4.0903 9.2269 4.1101 9.2187 C 4.1498 9.2021 4.1446 9.2021 3.9751 9.2187" stroke="none" stroke-linejoin="miter" stroke-linecap="butt" fill="#60c9f8" stroke-width="1.0000000238418927"/></g><g id="l61hxuqhjc" transform="translate(4.283999244689937 2.9168134666294754)" class=""><path d="M 0.54 0.0054 C 0.5071 0.0139 0.518 0.0172 0.5805 0.018 C 0.6275 0.0186 0.666 0.0167 0.666 0.0138 C 0.666 0.0007 0.5805 -0.005 0.54 0.0054 M 0.4393 0.0587 C 0.4082 0.0921 0.4048 0.127 0.4032 0.4305 L 0.4014 0.7654 L 0.4122 0.4305 C 0.4217 0.1345 0.427 0.0912 0.4573 0.0587 C 0.4761 0.0385 0.4875 0.022 0.4826 0.022 C 0.4776 0.022 0.4581 0.0385 0.4393 0.0587 M 0.774 0.0629 C 0.774 0.0745 1.0109 0.2 1.0187 0.1924 C 1.0221 0.189 0.9685 0.1566 0.8995 0.1204 C 0.8305 0.0841 0.774 0.0583 0.774 0.0629 M 1.08 0.2303 C 1.1047 0.25 1.1331 0.2661 1.143 0.2662 C 1.1623 0.2663 1.1297 0.2421 1.071 0.2126 C 1.0471 0.2006 1.0501 0.2066 1.08 0.2303 M 1.206 0.2924 C 1.206 0.2972 1.2384 0.3172 1.278 0.3368 C 1.3176 0.3565 1.35 0.3686 1.35 0.3638 C 1.35 0.359 1.3176 0.339 1.278 0.3193 C 1.2384 0.2997 1.206 0.2876 1.206 0.2924 M 1.872 0.6401 C 1.872 0.652 2.0013 0.7243 2.0091 0.7167 C 2.0127 0.7133 1.9833 0.6928 1.9438 0.6712 C 1.9043 0.6496 1.872 0.6357 1.872 0.6401 M 2.268 0.8522 C 2.268 0.857 2.3004 0.877 2.34 0.8966 C 2.3796 0.9162 2.412 0.9283 2.412 0.9235 C 2.412 0.9187 2.3796 0.8987 2.34 0.8791 C 2.3004 0.8595 2.268 0.8474 2.268 0.8522 M 2.862 1.1656 C 2.862 1.1788 2.9923 1.2481 3.001 1.2396 C 3.0057 1.2351 2.9763 1.215 2.9358 1.1948 C 2.8952 1.1747 2.862 1.1616 2.862 1.1656 M 3.258 1.3771 C 3.258 1.3819 3.2985 1.4058 3.348 1.4301 C 3.3975 1.4545 3.438 1.4705 3.438 1.4657 C 3.438 1.4609 3.3975 1.437 3.348 1.4126 C 3.2985 1.3883 3.258 1.3723 3.258 1.3771 M 3.69 1.6044 C 3.69 1.6092 3.7224 1.6291 3.762 1.6488 C 3.8016 1.6684 3.834 1.6805 3.834 1.6757 C 3.834 1.6709 3.8016 1.6509 3.762 1.6313 C 3.7224 1.6117 3.69 1.5995 3.69 1.6044 M 3.924 1.7255 C 3.924 1.7345 4.0294 1.7952 4.0725 1.811 C 4.1363 1.8345 4.1014 1.8055 4.014 1.7625 C 3.9645 1.7381 3.924 1.7215 3.924 1.7255 M 0.3728 3.4922 C 0.365 4.3473 0.3621 5.0502 0.3662 5.0542 C 0.3773 5.065 0.3994 2.8056 0.3928 2.3397 C 0.3896 2.1185 0.3806 2.637 0.3728 3.4922 M 4.842 2.2162 C 4.842 2.2197 4.8987 2.2512 4.968 2.286 C 5.0373 2.3209 5.094 2.3454 5.094 2.3405 C 5.094 2.3356 5.0515 2.3099 4.9995 2.2834 C 4.8894 2.2273 4.842 2.2071 4.842 2.2162 M 5.274 2.4444 C 5.274 2.4546 5.411 2.5235 5.4308 2.5232 C 5.4386 2.5231 5.4098 2.5034 5.3667 2.4795 C 5.2857 2.4345 5.274 2.4301 5.274 2.4444 M 5.778 2.7064 C 5.778 2.7112 5.8104 2.7312 5.85 2.7508 C 5.8896 2.7705 5.922 2.7826 5.922 2.7778 C 5.922 2.773 5.8896 2.753 5.85 2.7333 C 5.8104 2.7137 5.778 2.7016 5.778 2.7064 M 6.012 2.8274 C 6.012 2.8406 6.1423 2.9099 6.151 2.9014 C 6.1557 2.8969 6.1263 2.8768 6.0858 2.8567 C 6.0452 2.8365 6.012 2.8234 6.012 2.8274 M 6.336 3.0039 C 6.336 3.0087 6.3765 3.0326 6.426 3.0569 C 6.4755 3.0813 6.516 3.0973 6.516 3.0925 C 6.516 3.0877 6.4755 3.0638 6.426 3.0395 C 6.3765 3.0151 6.336 2.9991 6.336 3.0039 M 6.615 3.1489 C 6.6411 3.1741 6.8071 3.2609 6.8148 3.2534 C 6.8185 3.2499 6.7709 3.221 6.7092 3.1892 C 6.6475 3.1575 6.6051 3.1393 6.615 3.1489 M 7.002 3.3538 C 7.002 3.3586 7.0425 3.3824 7.092 3.4068 C 7.1415 3.4312 7.182 3.4472 7.182 3.4424 C 7.182 3.4375 7.1415 3.4137 7.092 3.3893 C 7.0425 3.365 7.002 3.3489 7.002 3.3538 M 7.668 3.7013 C 7.668 3.7132 7.7973 3.7855 7.8051 3.778 C 7.8087 3.7745 7.7793 3.754 7.7398 3.7324 C 7.7003 3.7108 7.668 3.6969 7.668 3.7013 M 7.9385 3.8484 C 7.9387 3.8556 7.9934 3.8881 8.06 3.9204 C 8.1266 3.9527 8.1729 3.9717 8.163 3.9626 C 8.1306 3.9328 7.938 3.8347 7.9385 3.8484 M 8.2731 4.0619 C 8.294 4.0865 8.3201 4.1223 8.331 4.1415 C 8.342 4.1607 8.3511 4.1665 8.3515 4.1544 C 8.3518 4.1422 8.3257 4.1064 8.2935 4.0748 C 8.2613 4.0433 8.2521 4.0375 8.2731 4.0619 M 8.3229 4.2246 C 8.2562 4.3344 8.2562 4.3347 8.3038 4.2814 C 8.3475 4.2325 8.3628 4.2027 8.3441 4.2027 C 8.3397 4.2027 8.3302 4.2126 8.3229 4.2246 M 7.884 4.5112 C 7.791 4.5625 7.7596 4.5876 7.7882 4.5876 C 7.7989 4.5876 7.8177 4.5758 7.83 4.5613 C 7.8423 4.5469 7.8615 4.5349 7.8727 4.5347 C 7.8839 4.5345 7.9133 4.5189 7.938 4.5001 C 7.9987 4.454 7.9814 4.4575 7.884 4.5112 M 7.4295 4.7637 C 7.3924 4.7827 7.362 4.8022 7.362 4.807 C 7.362 4.8118 7.3944 4.7996 7.434 4.78 C 7.4736 4.7603 7.506 4.7405 7.506 4.7359 C 7.506 4.7244 7.5059 4.7245 7.4295 4.7637 M 7.2675 4.8511 C 7.2304 4.8702 7.2 4.8897 7.2 4.8945 C 7.2 4.8992 7.2324 4.8871 7.272 4.8674 C 7.3116 4.8478 7.344 4.828 7.344 4.8234 C 7.344 4.8119 7.3439 4.8119 7.2675 4.8511 M 6.7905 5.1144 C 6.7093 5.1649 6.7168 5.1765 6.7995 5.1282 C 6.8832 5.0793 6.8858 5.0773 6.8655 5.0777 C 6.8564 5.0778 6.8227 5.0943 6.7905 5.1144 M 6.5128 5.2671 C 6.3407 5.3651 6.2583 5.4217 6.363 5.37 C 6.4207 5.3415 6.7 5.183 6.7125 5.1716 C 6.7439 5.1432 6.6594 5.1836 6.5128 5.2671 M 6.2055 5.4372 C 6.1297 5.4855 6.1265 5.494 6.166 5.542 C 6.1927 5.5743 6.193 5.574 6.1736 5.5351 C 6.1502 5.4884 6.1503 5.4881 6.2413 5.4338 C 6.2785 5.4115 6.3009 5.3935 6.291 5.3938 C 6.2811 5.3941 6.2426 5.4136 6.2055 5.4372 M 6.3813 5.847 C 6.4067 5.8926 6.5389 6.0744 6.5467 6.0744 C 6.5561 6.0744 6.5417 6.0514 6.4643 5.9432 C 6.3972 5.8496 6.3564 5.8023 6.3813 5.847 M 6.5972 6.1532 C 6.6693 6.2505 6.6893 6.2686 6.6491 6.2001 C 6.6303 6.1682 6.5993 6.1288 6.5802 6.1126 C 6.5599 6.0955 6.567 6.1124 6.5972 6.1532 M 6.8315 6.4768 C 6.8542 6.5172 7.0579 6.7982 7.0788 6.8179 C 7.1088 6.8463 7.0761 6.7958 6.9597 6.6342 C 6.8547 6.4884 6.8009 6.4224 6.8315 6.4768 M 7.128 6.8966 C 7.1492 6.9255 7.1705 6.9491 7.1754 6.9491 C 7.1804 6.9491 7.1672 6.9255 7.146 6.8966 C 7.1249 6.8677 7.1035 6.8441 7.0986 6.8441 C 7.0936 6.8441 7.1069 6.8677 7.128 6.8966 M 0.3499 7.4739 C 0.3499 7.7288 0.3524 7.8331 0.3555 7.7056 C 0.3585 7.5782 0.3585 7.3696 0.3555 7.2421 C 0.3524 7.1146 0.3499 7.2189 0.3499 7.4739 M 2.826 7.124 C 2.8462 7.1625 2.8668 7.194 2.8717 7.194 C 2.8767 7.194 2.8642 7.1625 2.844 7.124 C 2.8238 7.0855 2.8032 7.054 2.7983 7.054 C 2.7933 7.054 2.8058 7.0855 2.826 7.124 M 2.5065 7.107 C 2.4842 7.1157 2.466 7.1271 2.466 7.1322 C 2.466 7.1491 2.4947 7.1418 2.5301 7.1158 C 2.5699 7.0865 2.5643 7.0845 2.5065 7.107 M 2.34 7.1852 C 2.2954 7.2084 2.264 7.2277 2.2702 7.2282 C 2.2876 7.2294 2.448 7.1583 2.448 7.1494 C 2.448 7.1342 2.4205 7.1434 2.34 7.1852 M 7.3175 7.159 C 7.3442 7.2066 7.491 7.4039 7.4997 7.4039 C 7.5111 7.4039 7.4942 7.3775 7.4101 7.2639 C 7.3342 7.1615 7.292 7.1137 7.3175 7.159 M 2.1555 7.2651 C 2.1184 7.2842 2.088 7.3031 2.088 7.3072 C 2.088 7.3163 2.2275 7.2566 2.2442 7.2404 C 2.2669 7.2184 2.2225 7.2308 2.1555 7.2651 M 3.0097 7.4377 C 3.0321 7.4755 3.0535 7.5035 3.0573 7.4998 C 3.065 7.4923 2.9894 7.3689 2.977 7.3689 C 2.9726 7.3689 2.9873 7.3999 3.0097 7.4377 M 1.7668 7.4408 C 1.7238 7.4603 1.6924 7.48 1.6969 7.4844 C 1.7015 7.4889 1.7447 7.4728 1.7931 7.4487 C 1.8982 7.3962 1.878 7.3902 1.7668 7.4408 M 7.542 7.4739 C 7.5632 7.5027 7.5845 7.5263 7.5894 7.5263 C 7.5944 7.5263 7.5812 7.5027 7.56 7.4739 C 7.5389 7.445 7.5175 7.4214 7.5126 7.4214 C 7.5076 7.4214 7.5209 7.445 7.542 7.4739 M 1.4805 7.5709 C 1.3889 7.613 1.314 7.6515 1.314 7.6564 C 1.314 7.6657 1.5341 7.5712 1.629 7.5212 C 1.7357 7.465 1.6437 7.4957 1.4805 7.5709 M 7.6046 7.6233 C 7.6043 7.6651 7.6103 7.6899 7.6178 7.6784 C 7.6355 7.6514 7.636 7.5657 7.6185 7.5554 C 7.6111 7.5509 7.6048 7.5815 7.6046 7.6233 M 1.1925 7.7024 C 1.1504 7.7216 1.116 7.7407 1.116 7.745 C 1.116 7.7546 1.1585 7.7389 1.241 7.6988 C 1.3288 7.6561 1.2873 7.6592 1.1925 7.7024 M 7.4565 7.7718 C 7.3962 7.7953 7.4075 7.8073 7.47 7.7861 C 7.4997 7.776 7.524 7.7646 7.524 7.7608 C 7.524 7.7504 7.5021 7.754 7.4565 7.7718 M 0.9585 7.8067 C 0.9362 7.8154 0.918 7.8268 0.918 7.8319 C 0.918 7.8489 0.9467 7.8416 0.9821 7.8155 C 1.0219 7.7862 1.0163 7.7842 0.9585 7.8067 M 7.2588 7.8796 C 7.2168 7.9005 7.1855 7.9204 7.1891 7.9239 C 7.1965 7.9311 7.344 7.859 7.344 7.8482 C 7.344 7.8376 7.3408 7.8388 7.2588 7.8796 M 0.756 7.9024 C 0.7313 7.9162 0.6981 7.9277 0.6823 7.9281 C 0.6521 7.9287 0.594 7.9815 0.594 8.0083 C 0.594 8.0169 0.6059 8.0075 0.6204 7.9874 C 0.6349 7.9672 0.6693 7.9463 0.6969 7.9408 C 0.7245 7.9353 0.7632 7.9188 0.783 7.9041 C 0.8282 7.8705 0.815 7.8697 0.756 7.9024 M 7.0867 7.9669 C 7.0491 7.9867 7.0224 8.0068 7.0272 8.0115 C 7.0362 8.0202 7.164 7.9496 7.164 7.936 C 7.164 7.9262 7.1647 7.9259 7.0867 7.9669 M 0.3607 7.9601 C 0.3583 8.0348 0.4873 8.0903 0.5501 8.0414 C 0.5833 8.0155 0.583 8.0151 0.5428 8.0341 C 0.4838 8.062 0.4197 8.0418 0.3882 7.9853 C 0.3735 7.959 0.3611 7.9476 0.3607 7.9601 M 3.4002 8.0948 C 3.4305 8.1519 3.4555 8.1835 3.4553 8.1648 C 3.4552 8.1552 3.4386 8.1276 3.4184 8.1036 C 3.3939 8.0746 3.3878 8.0716 3.4002 8.0948 M 6.7528 8.1405 C 6.7098 8.1601 6.6785 8.1798 6.6831 8.1844 C 6.6919 8.1929 6.84 8.1232 6.84 8.1106 C 6.84 8.1008 6.8398 8.1008 6.7528 8.1405 M 3.888 8.3289 C 3.888 8.3373 3.9002 8.354 3.915 8.366 C 3.9443 8.3896 3.948 8.384 3.9311 8.3412 C 3.9195 8.3119 3.888 8.3029 3.888 8.3289 M 6.0964 8.4748 C 5.9498 8.5517 5.8329 8.6175 5.8366 8.6212 C 5.8428 8.6272 6.3672 8.359 6.3872 8.3395 C 6.415 8.3125 6.3337 8.3503 6.0964 8.4748 M 5.724 8.6721 C 5.6794 8.6953 5.6494 8.7146 5.6572 8.7151 C 5.6763 8.7161 5.814 8.6474 5.814 8.6368 C 5.814 8.6252 5.8148 8.6249 5.724 8.6721 M 3.7602 8.7071 C 3.7905 8.7642 3.8155 8.7958 3.8153 8.7771 C 3.8152 8.7674 3.7986 8.7399 3.7784 8.7158 C 3.7539 8.6868 3.7478 8.6839 3.7602 8.7071 M 4.9455 9.0669 C 4.9084 9.0859 4.878 9.1054 4.878 9.1102 C 4.878 9.118 5.0202 9.0534 5.0385 9.0373 C 5.0592 9.0191 5.0051 9.0363 4.9455 9.0669 M 4.761 9.1633 C 4.7214 9.1863 4.6971 9.2052 4.707 9.2052 C 4.7169 9.2054 4.7574 9.186 4.797 9.1623 C 4.8366 9.1386 4.8609 9.1197 4.851 9.1204 C 4.8411 9.121 4.8006 9.1403 4.761 9.1633 M 4.0669 9.2349 C 4.091 9.2833 4.1721 9.3458 4.2099 9.3449 C 4.2259 9.3445 4.2141 9.3336 4.1836 9.3207 C 4.1531 9.3078 4.1101 9.2747 4.0881 9.2471 C 4.0621 9.2145 4.0546 9.2102 4.0669 9.2349 M 5.31 9.831 L 10.62 9.8354 L 10.62 10.5176 L 10.62 11.1998 L 5.31 11.2042 L 0 11.2086 L 5.3145 11.2086 L 10.629 11.2086 L 10.629 10.5176 L 10.629 9.8266 L 5.3145 9.8266 L 0 9.8265 L 5.31 9.831" stroke="none" stroke-linejoin="miter" stroke-linecap="butt" fill="#a3e0fc" stroke-width="1.0000000238418927"/></g><g id="l61hxurpjd" transform="translate(4.274369728088375 2.9632608716973117)" class=""><path d="M 0.8016 0.0011 C 0.8016 0.0059 0.834 0.0259 0.8736 0.0455 C 0.9132 0.0651 0.9456 0.0772 0.9456 0.0724 C 0.9456 0.0676 0.9132 0.0476 0.8736 0.028 C 0.834 0.0084 0.8016 -0.0038 0.8016 0.0011 M 1.4676 0.3509 C 1.4676 0.3557 1.5 0.3757 1.5396 0.3953 C 1.5792 0.415 1.6116 0.4271 1.6116 0.4223 C 1.6116 0.4175 1.5792 0.3975 1.5396 0.3778 C 1.5 0.3582 1.4676 0.3461 1.4676 0.3509 M 1.6746 0.4653 C 1.7043 0.4844 1.7367 0.5001 1.7466 0.5001 C 1.7565 0.5001 1.7381 0.4845 1.7057 0.4653 C 1.6293 0.42 1.6043 0.42 1.6746 0.4653 M 2.2956 0.7875 C 2.2956 0.7912 2.324 0.8105 2.3586 0.8303 C 2.3933 0.8502 2.4216 0.8603 2.4216 0.8528 C 2.4216 0.8453 2.3933 0.826 2.3586 0.81 C 2.324 0.7939 2.2956 0.7838 2.2956 0.7875 M 0.3774 2.6781 C 0.3774 2.8994 0.3799 2.9875 0.3831 2.8739 C 0.3862 2.7604 0.3862 2.5793 0.383 2.4716 C 0.3799 2.3639 0.3773 2.4569 0.3774 2.6781 M 0.3601 4.6373 C 0.3601 5.2915 0.3624 5.5567 0.3651 5.2264 C 0.3679 4.8962 0.3679 4.3609 0.3651 4.0369 C 0.3624 3.7129 0.3601 3.9831 0.3601 4.6373 M 8.3526 4.13 C 8.3526 4.1715 8.3587 4.2018 8.3661 4.1973 C 8.3736 4.1928 8.3796 4.1626 8.3796 4.13 C 8.3796 4.0975 8.3736 4.0672 8.3661 4.0628 C 8.3587 4.0583 8.3526 4.0886 8.3526 4.13 M 7.3446 4.7961 C 7.305 4.8191 7.2807 4.838 7.2906 4.8381 C 7.3123 4.8384 7.4256 4.7728 7.4256 4.76 C 7.4256 4.7486 7.4294 4.747 7.3446 4.7961 M 7.0116 4.9801 C 6.9671 5.0086 6.9023 5.0461 6.8676 5.0635 C 6.7858 5.1044 6.6855 5.1598 6.5579 5.2347 C 6.5015 5.2678 6.3962 5.3249 6.3239 5.3617 C 6.1841 5.4327 6.1658 5.4572 6.2111 5.5123 C 6.2388 5.5459 6.239 5.5457 6.2198 5.5072 C 6.1932 5.454 6.1992 5.4477 6.3405 5.3811 C 6.4076 5.3494 6.5072 5.2946 6.5616 5.2593 C 6.6161 5.2241 6.7173 5.1651 6.7866 5.1283 C 6.9268 5.0538 7.1016 4.9458 7.1016 4.9338 C 7.1016 4.9225 7.1007 4.923 7.0116 4.9801 M 0.3417 6.7802 C 0.3417 7.1025 0.3441 7.2343 0.3471 7.0732 C 0.3501 6.912 0.3501 6.6483 0.3471 6.4872 C 0.3441 6.326 0.3417 6.4579 0.3417 6.7802 M 7.0123 6.6315 C 7.0124 6.6411 7.029 6.6687 7.0493 6.6927 C 7.0737 6.7218 7.0798 6.7247 7.0674 6.7015 C 7.0371 6.6444 7.0122 6.6128 7.0123 6.6315 M 2.6035 7.0441 C 2.5798 7.0533 2.5649 7.0652 2.5704 7.0706 C 2.5759 7.0759 2.6034 7.0682 2.6316 7.0534 C 2.6881 7.0236 2.6709 7.0179 2.6035 7.0441 M 2.2506 7.2104 C 2.2011 7.2338 2.1809 7.2478 2.2056 7.2417 C 2.2584 7.2286 2.3496 7.1853 2.3496 7.1733 C 2.3496 7.163 2.3571 7.1602 2.2506 7.2104 M 2.0526 7.2999 C 2.0328 7.3046 2.0085 7.3163 1.9986 7.3261 C 1.9761 7.3483 2.0625 7.3259 2.0877 7.303 C 2.0971 7.2945 2.1012 7.2884 2.0967 7.2895 C 2.0923 7.2906 2.0724 7.2953 2.0526 7.2999 M 1.6926 7.462 C 1.5936 7.5092 1.4276 7.5867 1.3236 7.6341 C 1.2197 7.6815 1.0388 7.7647 0.9217 7.8188 C 0.8046 7.8729 0.7003 7.9172 0.6901 7.9172 C 0.6798 7.9172 0.6429 7.9416 0.608 7.9713 C 0.5584 8.0136 0.5317 8.024 0.4854 8.0187 C 0.4528 8.015 0.4301 8.0182 0.435 8.0258 C 0.4535 8.055 0.54 8.0374 0.655 7.9811 C 0.7208 7.9488 0.8232 7.9009 0.8826 7.8746 C 0.942 7.8482 1.0028 7.8192 1.0176 7.8102 C 1.0325 7.8011 1.0608 7.7888 1.0806 7.7827 C 1.1187 7.7711 1.8827 7.3973 1.8972 7.3832 C 1.9223 7.3588 1.8532 7.3853 1.6926 7.462 M 7.6407 7.58 C 7.6358 7.6207 7.6386 7.6472 7.647 7.6391 C 7.6554 7.6309 7.6595 7.5977 7.656 7.5652 C 7.6499 7.5076 7.6495 7.508 7.6407 7.58 M 3.204 7.7412 C 3.2191 7.7694 3.2395 7.7974 3.2495 7.8035 C 3.2595 7.8095 3.2507 7.7863 3.2299 7.7521 C 3.1843 7.677 3.1657 7.6692 3.204 7.7412 M 7.1736 7.9105 C 7.1017 7.9508 6.9501 8.0292 6.5627 8.2264 C 6.4318 8.2931 6.403 8.3132 6.4788 8.2852 C 6.5244 8.2684 6.9344 8.0712 7.0358 8.0173 C 7.0946 7.986 7.2636 7.8772 7.2636 7.8706 C 7.2636 7.8608 7.2576 7.8635 7.1736 7.9105 M 5.9856 8.5237 C 5.8739 8.5862 5.6899 8.6809 5.449 8.7999 C 5.337 8.8552 5.249 8.9039 5.2533 8.9082 C 5.2577 8.9124 5.325 8.8849 5.403 8.8469 C 5.4809 8.809 5.6378 8.7336 5.7516 8.6794 C 5.8655 8.6252 5.987 8.5577 6.0216 8.5294 C 6.0989 8.4663 6.0907 8.465 5.9856 8.5237 M 5.1003 8.9735 C 4.9932 9.0313 4.9449 9.0659 5.0053 9.0417 C 5.0711 9.0153 5.2296 8.9313 5.2296 8.9227 C 5.2296 8.9076 5.2041 8.9176 5.1003 8.9735 M 4.8257 9.116 C 4.8065 9.1302 4.7988 9.1417 4.8087 9.1417 C 4.8186 9.1417 4.8424 9.1302 4.8617 9.116 C 4.8809 9.1019 4.8885 9.0903 4.8786 9.0903 C 4.8687 9.0903 4.8449 9.1019 4.8257 9.116 M 2.6781 9.7671 C 4.0914 9.7695 6.4039 9.7695 7.8171 9.7671 C 9.2304 9.7646 8.0741 9.7626 5.2476 9.7626 C 2.4212 9.7626 1.2649 9.7646 2.6781 9.7671 M 0.0003 10.4711 L 0.0006 11.1796 L 5.3151 11.1796 L 10.6296 11.1797 L 5.3199 11.1752 L 0.01 11.1708 L 0.005 10.4667 L 0 9.7627 L 0.0003 10.4711" stroke="none" stroke-linejoin="miter" stroke-linecap="butt" fill="#37bcf4" stroke-width="1.0000000238418927"/></g></g></g></svg></svg>