<svg id="svg" version="1.1" xmlns="http://www.w3.org/2000/svg" xmlns:xlink="http://www.w3.org/1999/xlink" width="400" height="226.12244897959184" viewBox="0, 0, 400,226.12244897959184"><g id="svgg"><path id="path0" d="M21.427 0.538 C 21.358 0.744,19.616 1.132,18.439 1.203 C 18.066 1.226,17.658 1.351,17.534 1.481 C 17.410 1.611,16.900 1.851,16.403 2.014 C 10.919 3.807,5.342 8.846,2.744 14.355 C 1.879 16.189,0.905 18.997,0.905 19.655 C 0.905 19.907,0.778 20.195,0.622 20.294 C 0.014 20.683,0.086 29.538,0.702 30.192 C 0.814 30.311,0.905 30.598,0.905 30.831 C 0.905 31.910,2.463 35.807,3.729 37.896 C 5.674 41.106,3.270 38.618,43.100 78.629 C 59.525 95.129,75.906 111.600,79.502 115.231 C 83.098 118.862,99.540 135.404,116.041 151.992 C 132.541 168.580,148.981 185.124,152.574 188.757 C 168.328 204.685,182.998 219.349,183.937 220.106 C 184.497 220.558,184.989 221.004,185.030 221.097 C 185.072 221.191,185.241 221.267,185.407 221.267 C 185.573 221.267,185.743 221.351,185.784 221.454 C 185.885 221.704,188.637 223.301,188.983 223.310 C 189.132 223.314,189.435 223.455,189.657 223.624 C 189.879 223.792,190.796 224.154,191.693 224.428 C 192.591 224.702,193.560 225.019,193.845 225.132 C 194.131 225.246,194.713 225.339,195.137 225.339 C 195.562 225.339,196.028 225.467,196.173 225.622 C 196.482 225.954,202.512 225.775,204.412 225.378 C 206.498 224.941,206.892 224.821,208.973 223.987 C 213.890 222.015,212.175 223.590,242.647 193.067 C 366.586 68.922,393.525 41.865,394.516 40.535 C 394.855 40.079,395.186 39.655,395.250 39.593 C 396.346 38.528,399.095 32.242,399.095 30.799 C 399.095 30.549,399.183 30.289,399.291 30.222 C 399.559 30.057,399.850 26.961,399.794 24.887 C 399.684 20.832,399.651 20.469,399.378 20.294 C 399.222 20.195,399.095 19.907,399.095 19.655 C 399.095 18.523,396.385 12.008,395.719 11.538 C 395.631 11.476,395.233 10.947,394.835 10.362 C 392.585 7.055,386.380 2.514,383.258 1.889 C 382.879 1.813,382.515 1.663,382.448 1.554 C 382.381 1.446,382.024 1.357,381.654 1.357 C 381.284 1.357,380.931 1.228,380.871 1.069 C 380.799 0.883,380.452 0.810,379.896 0.863 C 379.379 0.912,378.904 0.824,378.713 0.642 C 378.341 0.290,371.709 0.197,371.460 0.541 C 371.379 0.653,370.870 0.825,370.329 0.925 C 368.624 1.240,368.000 1.386,367.534 1.580 C 367.285 1.683,366.653 1.927,366.130 2.123 C 363.911 2.949,361.436 4.315,359.842 5.593 C 358.558 6.622,233.869 131.500,210.212 155.450 C 204.691 161.038,200.001 165.611,199.789 165.611 C 199.578 165.611,195.252 161.411,190.177 156.278 C 185.103 151.145,167.445 133.371,150.939 116.779 C 134.433 100.187,118.447 84.101,115.415 81.032 C 110.502 76.060,49.624 14.826,44.040 9.240 C 39.918 5.117,36.231 2.593,33.312 1.896 C 32.971 1.814,32.590 1.673,32.466 1.581 C 32.223 1.402,31.209 1.179,29.751 0.985 C 29.253 0.918,28.744 0.746,28.620 0.602 C 28.349 0.288,21.530 0.227,21.427 0.538 " stroke="none" fill="#040404" fill-rule="evenodd"></path><path id="path1" d="M22.342 0.160 C 22.622 0.214,23.080 0.214,23.360 0.160 C 23.640 0.106,23.411 0.062,22.851 0.062 C 22.291 0.062,22.062 0.106,22.342 0.160 M26.263 0.092 C 26.442 0.267,28.031 0.325,28.193 0.163 C 28.283 0.073,27.864 0.000,27.262 0.000 C 26.661 0.000,26.211 0.041,26.263 0.092 M371.807 0.163 C 371.969 0.325,373.558 0.267,373.737 0.092 C 373.789 0.041,373.339 0.000,372.738 0.000 C 372.136 0.000,371.717 0.073,371.807 0.163 M376.640 0.160 C 376.920 0.214,377.378 0.214,377.658 0.160 C 377.938 0.106,377.709 0.062,377.149 0.062 C 376.589 0.062,376.360 0.106,376.640 0.160 M19.457 0.452 C 19.457 0.577,19.610 0.679,19.796 0.679 C 19.983 0.679,20.136 0.577,20.136 0.452 C 20.136 0.328,19.983 0.226,19.796 0.226 C 19.610 0.226,19.457 0.328,19.457 0.452 M29.864 0.452 C 29.864 0.577,30.068 0.679,30.317 0.679 C 30.566 0.679,30.769 0.577,30.769 0.452 C 30.769 0.328,30.566 0.226,30.317 0.226 C 30.068 0.226,29.864 0.328,29.864 0.452 M369.231 0.452 C 369.231 0.577,369.434 0.679,369.683 0.679 C 369.932 0.679,370.136 0.577,370.136 0.452 C 370.136 0.328,369.932 0.226,369.683 0.226 C 369.434 0.226,369.231 0.328,369.231 0.452 M379.864 0.452 C 379.864 0.577,380.017 0.679,380.204 0.679 C 380.390 0.679,380.543 0.577,380.543 0.452 C 380.543 0.328,380.390 0.226,380.204 0.226 C 380.017 0.226,379.864 0.328,379.864 0.452 M17.647 0.905 C 17.647 1.029,17.851 1.131,18.100 1.131 C 18.348 1.131,18.552 1.029,18.552 0.905 C 18.552 0.781,18.348 0.679,18.100 0.679 C 17.851 0.679,17.647 0.781,17.647 0.905 M31.448 0.905 C 31.448 1.029,31.652 1.131,31.900 1.131 C 32.149 1.131,32.353 1.029,32.353 0.905 C 32.353 0.781,32.149 0.679,31.900 0.679 C 31.652 0.679,31.448 0.781,31.448 0.905 M367.647 0.905 C 367.647 1.029,367.851 1.131,368.100 1.131 C 368.348 1.131,368.552 1.029,368.552 0.905 C 368.552 0.781,368.348 0.679,368.100 0.679 C 367.851 0.679,367.647 0.781,367.647 0.905 M381.674 0.905 C 381.674 1.029,381.878 1.131,382.127 1.131 C 382.376 1.131,382.579 1.029,382.579 0.905 C 382.579 0.781,382.376 0.679,382.127 0.679 C 381.878 0.679,381.674 0.781,381.674 0.905 M32.805 1.357 C 32.805 1.482,33.009 1.584,33.258 1.584 C 33.507 1.584,33.710 1.482,33.710 1.357 C 33.710 1.233,33.507 1.131,33.258 1.131 C 33.009 1.131,32.805 1.233,32.805 1.357 M366.290 1.357 C 366.290 1.482,366.493 1.584,366.742 1.584 C 366.991 1.584,367.195 1.482,367.195 1.357 C 367.195 1.233,366.991 1.131,366.742 1.131 C 366.493 1.131,366.290 1.233,366.290 1.357 M15.428 1.601 C 15.473 1.734,15.606 1.844,15.724 1.844 C 15.842 1.844,15.975 1.734,16.020 1.601 C 16.065 1.467,15.931 1.357,15.724 1.357 C 15.517 1.357,15.383 1.467,15.428 1.601 M34.094 1.502 C 33.882 1.713,34.138 2.036,34.516 2.036 C 34.695 2.036,34.842 1.883,34.842 1.697 C 34.842 1.356,34.364 1.232,34.094 1.502 M365.158 1.713 C 365.158 1.924,365.312 2.040,365.536 1.996 C 366.103 1.886,366.181 1.357,365.630 1.357 C 365.352 1.357,365.158 1.504,365.158 1.713 M35.111 2.053 C 35.156 2.187,35.289 2.296,35.407 2.296 C 35.525 2.296,35.659 2.187,35.703 2.053 C 35.748 1.919,35.615 1.810,35.407 1.810 C 35.200 1.810,35.067 1.919,35.111 2.053 M364.253 2.036 C 364.253 2.161,364.406 2.262,364.593 2.262 C 364.779 2.262,364.932 2.161,364.932 2.036 C 364.932 1.912,364.779 1.810,364.593 1.810 C 364.406 1.810,364.253 1.912,364.253 2.036 M385.973 2.489 C 385.973 2.613,386.126 2.715,386.312 2.715 C 386.499 2.715,386.652 2.791,386.653 2.885 C 386.656 3.104,387.725 3.602,387.874 3.453 C 388.054 3.273,387.399 2.715,387.007 2.715 C 386.812 2.715,386.652 2.613,386.652 2.489 C 386.652 2.364,386.499 2.262,386.312 2.262 C 386.126 2.262,385.973 2.364,385.973 2.489 M36.652 2.941 C 36.652 3.066,36.804 3.167,36.991 3.167 C 37.178 3.167,37.330 3.066,37.330 2.941 C 37.330 2.817,37.178 2.715,36.991 2.715 C 36.804 2.715,36.652 2.817,36.652 2.941 M362.670 2.941 C 362.670 3.066,362.822 3.167,363.009 3.167 C 363.196 3.167,363.348 3.066,363.348 2.941 C 363.348 2.817,363.196 2.715,363.009 2.715 C 362.822 2.715,362.670 2.817,362.670 2.941 M37.557 3.369 C 37.557 3.599,38.246 3.911,38.403 3.753 C 38.460 3.697,38.440 3.541,38.358 3.409 C 38.177 3.117,37.557 3.086,37.557 3.369 M361.693 3.481 C 361.608 3.701,361.702 3.761,362.008 3.681 C 362.509 3.550,362.599 3.167,362.128 3.167 C 361.955 3.167,361.759 3.309,361.693 3.481 M11.312 3.733 C 11.312 3.920,11.414 4.072,11.538 4.072 C 11.663 4.072,11.765 3.920,11.765 3.733 C 11.765 3.546,11.663 3.394,11.538 3.394 C 11.414 3.394,11.312 3.546,11.312 3.733 M388.235 3.733 C 388.235 3.920,388.337 4.072,388.462 4.072 C 388.586 4.072,388.688 3.920,388.688 3.733 C 388.688 3.546,388.586 3.394,388.462 3.394 C 388.337 3.394,388.235 3.546,388.235 3.733 M38.825 4.168 C 38.957 4.510,39.585 4.835,39.765 4.654 C 39.911 4.509,39.232 3.846,38.937 3.846 C 38.808 3.846,38.758 3.991,38.825 4.168 M360.441 4.209 C 360.273 4.399,360.182 4.601,360.239 4.658 C 360.437 4.856,361.086 4.475,361.086 4.161 C 361.086 3.754,360.826 3.773,360.441 4.209 M9.729 4.751 C 9.549 5.000,9.276 5.204,9.120 5.204 C 8.965 5.204,8.475 5.585,8.032 6.052 C 7.039 7.096,7.024 7.110,6.020 8.064 C 5.238 8.806,4.952 9.502,5.430 9.502 C 5.554 9.502,5.656 9.426,5.656 9.332 C 5.656 9.000,9.514 5.204,9.852 5.204 C 10.024 5.204,10.633 4.599,10.633 4.428 C 10.633 4.120,10.027 4.337,9.729 4.751 M389.367 4.525 C 389.367 4.649,389.445 4.751,389.541 4.751 C 389.969 4.751,394.344 8.905,394.344 9.311 C 394.344 9.416,394.446 9.502,394.570 9.502 C 395.048 9.502,394.762 8.806,393.980 8.064 C 392.968 7.103,392.826 6.961,391.904 5.988 C 391.496 5.557,391.035 5.204,390.880 5.204 C 390.724 5.204,390.451 5.000,390.271 4.751 C 389.930 4.277,389.367 4.136,389.367 4.525 M40.045 4.945 C 40.045 5.185,41.414 6.335,41.700 6.335 C 41.914 6.335,41.610 5.891,40.894 5.157 C 40.475 4.728,40.045 4.620,40.045 4.945 M359.074 5.217 C 358.777 5.465,358.595 5.730,358.671 5.806 C 358.849 5.983,359.955 5.264,359.955 4.972 C 359.955 4.639,359.675 4.717,359.074 5.217 M356.836 7.081 C 356.677 7.231,356.204 7.695,355.786 8.113 C 355.186 8.713,354.727 9.172,353.750 10.149 C 353.297 10.602,352.853 11.050,352.764 11.143 C 352.675 11.237,352.271 11.609,351.867 11.969 C 351.119 12.636,350.919 13.122,351.392 13.122 C 351.662 13.122,357.692 7.200,357.692 6.935 C 357.692 6.695,357.151 6.788,356.836 7.081 M4.129 10.293 C 3.584 10.912,3.905 11.389,4.480 10.814 C 4.780 10.514,4.848 9.950,4.581 9.963 C 4.488 9.968,4.285 10.117,4.129 10.293 M395.249 10.249 C 395.249 10.575,395.691 11.086,395.973 11.086 C 396.262 11.086,396.182 10.629,395.831 10.278 C 395.429 9.877,395.249 9.868,395.249 10.249 M3.318 11.463 C 3.235 11.546,3.167 11.801,3.167 12.029 C 3.167 12.257,3.066 12.443,2.941 12.443 C 2.817 12.443,2.715 12.596,2.715 12.783 C 2.715 13.536,3.166 13.030,3.775 11.595 C 3.901 11.298,3.577 11.204,3.318 11.463 M396.213 11.564 C 396.824 13.019,397.285 13.543,397.285 12.783 C 397.285 12.596,397.190 12.443,397.075 12.443 C 396.959 12.443,396.832 12.222,396.792 11.952 C 396.752 11.682,396.576 11.413,396.401 11.356 C 396.196 11.288,396.129 11.363,396.213 11.564 M1.810 14.367 C 1.810 14.553,1.912 14.706,2.036 14.706 C 2.161 14.706,2.262 14.553,2.262 14.367 C 2.262 14.180,2.161 14.027,2.036 14.027 C 1.912 14.027,1.810 14.180,1.810 14.367 M397.738 14.367 C 397.738 14.553,397.839 14.706,397.964 14.706 C 398.088 14.706,398.190 14.553,398.190 14.367 C 398.190 14.180,398.088 14.027,397.964 14.027 C 397.839 14.027,397.738 14.180,397.738 14.367 M1.357 15.290 C 1.357 15.690,1.845 15.620,1.984 15.201 C 2.034 15.053,1.913 14.932,1.716 14.932 C 1.519 14.932,1.357 15.093,1.357 15.290 M398.016 15.201 C 398.155 15.620,398.643 15.690,398.643 15.290 C 398.643 15.093,398.481 14.932,398.284 14.932 C 398.087 14.932,397.966 15.053,398.016 15.201 M0.226 19.005 C 0.226 19.253,0.328 19.457,0.452 19.457 C 0.577 19.457,0.679 19.253,0.679 19.005 C 0.679 18.756,0.577 18.552,0.452 18.552 C 0.328 18.552,0.226 18.756,0.226 19.005 M399.321 19.118 C 399.321 19.429,399.423 19.683,399.548 19.683 C 399.672 19.683,399.774 19.429,399.774 19.118 C 399.774 18.807,399.672 18.552,399.548 18.552 C 399.423 18.552,399.321 18.807,399.321 19.118 M57.692 22.293 C 57.692 22.359,58.023 22.763,58.428 23.190 C 59.301 24.113,59.196 24.006,61.517 26.327 C 63.757 28.567,63.574 28.387,64.568 29.331 C 65.017 29.757,65.385 30.204,65.385 30.324 C 65.385 30.445,65.486 30.543,65.611 30.543 C 66.191 30.543,64.101 28.167,61.978 26.414 C 61.564 26.072,61.306 25.792,61.406 25.792 C 61.575 25.792,60.929 25.145,59.700 24.084 C 59.404 23.830,58.908 23.296,58.597 22.899 C 58.084 22.242,57.692 21.980,57.692 22.293 M0.052 29.412 C 0.052 29.847,0.099 30.025,0.156 29.808 C 0.213 29.590,0.213 29.234,0.156 29.016 C 0.099 28.798,0.052 28.976,0.052 29.412 M399.826 29.412 C 399.826 29.847,399.873 30.025,399.930 29.808 C 399.987 29.590,399.987 29.234,399.930 29.016 C 399.873 28.798,399.826 28.976,399.826 29.412 M65.925 30.583 C 65.832 30.734,65.884 30.898,66.039 30.950 C 66.194 31.001,66.543 31.283,66.814 31.575 C 67.607 32.428,89.939 54.959,100.876 65.940 C 106.397 71.483,111.004 76.018,111.113 76.018 C 111.528 76.018,111.285 75.497,110.577 74.865 C 110.173 74.505,109.740 74.104,109.615 73.975 C 109.491 73.846,109.033 73.384,108.597 72.949 C 108.162 72.513,107.704 72.055,107.579 71.931 C 107.455 71.806,106.997 71.348,106.561 70.913 C 106.126 70.477,105.667 70.019,105.543 69.894 C 105.419 69.770,104.960 69.312,104.525 68.876 C 104.089 68.441,103.631 67.983,103.507 67.858 C 103.382 67.734,102.939 67.290,102.521 66.872 C 102.103 66.454,101.645 65.994,101.503 65.849 C 101.361 65.704,100.786 65.137,100.226 64.589 C 99.666 64.041,99.121 63.497,99.014 63.382 C 98.907 63.266,98.463 62.815,98.028 62.379 C 97.592 61.944,97.134 61.486,97.010 61.361 C 96.885 61.237,96.427 60.779,95.992 60.343 C 95.556 59.908,95.098 59.449,94.974 59.325 C 94.849 59.201,94.391 58.742,93.956 58.307 C 93.520 57.871,93.062 57.413,92.937 57.289 C 92.813 57.164,92.355 56.706,91.919 56.271 C 91.484 55.835,91.026 55.377,90.901 55.253 C 90.777 55.128,90.319 54.670,89.883 54.235 C 89.448 53.799,88.989 53.341,88.865 53.216 C 88.741 53.092,88.282 52.634,87.847 52.198 C 87.411 51.763,86.953 51.305,86.829 51.180 C 86.704 51.056,86.246 50.598,85.811 50.162 C 85.375 49.727,84.917 49.268,84.793 49.144 C 84.498 48.848,78.602 42.952,78.264 42.615 C 78.122 42.473,77.649 42.000,77.213 41.565 C 76.778 41.129,76.334 40.686,76.227 40.579 C 76.121 40.472,75.662 40.014,75.209 39.561 C 74.756 39.108,74.284 38.635,74.159 38.511 C 74.035 38.386,73.577 37.928,73.141 37.492 C 72.706 37.057,72.247 36.599,72.123 36.474 C 71.998 36.350,71.540 35.892,71.105 35.456 C 70.669 35.021,70.226 34.577,70.119 34.470 C 70.012 34.363,69.554 33.905,69.101 33.452 C 68.648 32.999,68.187 32.541,68.077 32.434 C 67.967 32.327,67.476 31.806,66.985 31.276 C 66.378 30.619,66.040 30.398,65.925 30.583 M0.226 31.335 C 0.226 31.521,0.328 31.674,0.452 31.674 C 0.577 31.674,0.679 31.521,0.679 31.335 C 0.679 31.148,0.577 30.995,0.452 30.995 C 0.328 30.995,0.226 31.148,0.226 31.335 M399.321 31.335 C 399.321 31.521,399.423 31.674,399.548 31.674 C 399.672 31.674,399.774 31.521,399.774 31.335 C 399.774 31.148,399.672 30.995,399.548 30.995 C 399.423 30.995,399.321 31.148,399.321 31.335 M0.679 32.919 C 0.679 33.105,0.781 33.258,0.905 33.258 C 1.029 33.258,1.131 33.105,1.131 32.919 C 1.131 32.732,1.029 32.579,0.905 32.579 C 0.781 32.579,0.679 32.732,0.679 32.919 M398.869 32.919 C 398.869 33.105,398.971 33.258,399.095 33.258 C 399.219 33.258,399.321 33.105,399.321 32.919 C 399.321 32.732,399.219 32.579,399.095 32.579 C 398.971 32.579,398.869 32.732,398.869 32.919 M1.131 34.176 C 1.131 34.432,1.233 34.579,1.357 34.502 C 1.651 34.321,1.651 33.710,1.357 33.710 C 1.233 33.710,1.131 33.920,1.131 34.176 M398.416 34.036 C 398.416 34.216,398.518 34.425,398.643 34.502 C 398.767 34.579,398.869 34.432,398.869 34.176 C 398.869 33.920,398.767 33.710,398.643 33.710 C 398.518 33.710,398.416 33.857,398.416 34.036 M2.262 36.894 C 2.262 37.209,2.926 37.873,3.083 37.716 C 3.253 37.547,2.746 36.652,2.481 36.652 C 2.361 36.652,2.262 36.761,2.262 36.894 M397.098 37.126 C 396.935 37.387,396.854 37.654,396.919 37.719 C 397.074 37.874,397.738 37.206,397.738 36.894 C 397.738 36.500,397.416 36.616,397.098 37.126 M3.267 38.602 C 3.426 39.237,4.015 39.951,4.215 39.752 C 4.381 39.586,3.879 38.688,3.619 38.688 C 3.503 38.688,3.466 38.535,3.538 38.348 C 3.610 38.161,3.545 38.009,3.393 38.009 C 3.210 38.009,3.168 38.206,3.267 38.602 M396.580 38.179 C 396.565 38.272,396.565 38.425,396.580 38.518 C 396.594 38.611,396.508 38.688,396.388 38.688 C 396.123 38.688,395.616 39.583,395.785 39.752 C 395.985 39.951,396.574 39.237,396.733 38.602 C 396.815 38.276,396.820 38.009,396.744 38.009 C 396.668 38.009,396.594 38.085,396.580 38.179 M4.299 40.385 C 4.299 40.571,4.396 40.724,4.515 40.724 C 4.633 40.724,4.990 40.983,5.306 41.300 C 6.063 42.056,6.047 41.689,5.284 40.768 C 4.634 39.983,4.299 39.852,4.299 40.385 M394.716 40.768 C 393.951 41.691,393.932 42.164,394.692 41.344 C 395.009 41.003,395.365 40.724,395.484 40.724 C 395.604 40.724,395.701 40.571,395.701 40.385 C 395.701 39.852,395.366 39.983,394.716 40.768 M6.787 42.996 C 6.787 43.259,7.101 43.671,7.866 44.412 C 8.148 44.686,8.606 45.140,8.884 45.422 C 9.162 45.704,9.620 46.162,9.902 46.440 C 10.184 46.718,10.642 47.177,10.920 47.459 C 11.378 47.924,12.602 49.156,13.171 49.725 C 13.296 49.849,13.754 50.307,14.189 50.743 C 14.625 51.178,15.083 51.637,15.207 51.761 C 15.332 51.885,15.804 52.358,16.258 52.811 C 16.711 53.264,17.169 53.722,17.276 53.829 C 17.816 54.369,19.056 55.602,19.510 56.048 C 19.792 56.326,20.250 56.785,20.528 57.067 C 20.806 57.349,21.264 57.807,21.546 58.085 C 21.828 58.363,22.286 58.821,22.564 59.103 C 22.842 59.385,23.300 59.843,23.582 60.121 C 23.864 60.399,24.322 60.857,24.601 61.139 C 24.879 61.421,25.337 61.879,25.619 62.157 C 25.901 62.435,26.359 62.893,26.638 63.175 C 26.917 63.457,27.362 63.905,27.627 64.170 C 27.892 64.435,28.464 65.009,28.898 65.446 C 29.332 65.883,29.789 66.342,29.913 66.467 C 30.038 66.591,30.496 67.049,30.931 67.485 C 31.367 67.920,31.825 68.379,31.949 68.503 C 32.074 68.627,32.532 69.086,32.968 69.521 C 33.403 69.957,33.861 70.415,33.986 70.539 C 34.110 70.664,34.568 71.122,35.004 71.557 C 35.439 71.993,35.897 72.451,36.022 72.575 C 36.146 72.700,36.588 73.144,37.003 73.561 C 38.098 74.663,38.474 74.950,38.626 74.798 C 38.700 74.724,34.188 70.078,28.600 64.474 C 23.011 58.871,15.889 51.692,12.772 48.523 C 7.298 42.957,6.787 42.485,6.787 42.996 M387.259 48.502 C 384.171 51.628,362.893 72.995,339.974 95.984 C 317.055 118.973,298.187 137.909,298.045 138.065 C 297.903 138.221,297.445 138.673,297.027 139.069 C 296.609 139.466,296.165 139.904,296.041 140.043 C 295.916 140.182,295.478 140.621,295.067 141.019 C 291.640 144.333,272.460 163.788,272.541 163.868 C 272.597 163.925,273.378 163.213,274.274 162.285 C 275.171 161.358,276.151 160.378,276.451 160.107 C 276.751 159.837,277.209 159.372,277.469 159.074 C 277.729 158.776,278.072 158.420,278.231 158.282 C 278.443 158.099,290.609 145.969,292.905 143.651 C 293.047 143.507,293.520 143.034,293.956 142.598 C 294.391 142.163,294.849 141.704,294.974 141.580 C 295.098 141.456,295.556 140.997,295.992 140.562 C 296.427 140.126,296.885 139.668,297.010 139.544 C 297.134 139.419,297.592 138.961,298.028 138.526 C 298.463 138.090,298.922 137.632,299.046 137.508 C 299.342 137.213,307.349 129.206,307.644 128.911 C 307.768 128.786,308.226 128.328,308.661 127.892 C 309.097 127.457,309.555 126.998,309.679 126.874 C 309.804 126.750,310.262 126.291,310.698 125.856 C 311.133 125.420,311.591 124.962,311.716 124.838 C 311.840 124.713,312.298 124.255,312.734 123.820 C 313.169 123.384,313.627 122.926,313.752 122.802 C 313.876 122.677,314.334 122.219,314.770 121.784 C 315.206 121.348,315.664 120.890,315.788 120.765 C 315.913 120.641,316.371 120.183,316.806 119.747 C 317.242 119.312,317.700 118.854,317.824 118.729 C 317.949 118.605,318.421 118.132,318.874 117.679 C 319.328 117.226,319.771 116.783,319.860 116.694 C 320.072 116.483,324.176 112.380,324.386 112.168 C 324.475 112.079,324.933 111.621,325.403 111.150 C 325.874 110.679,326.361 110.192,326.486 110.068 C 326.610 109.943,327.068 109.485,327.504 109.050 C 327.939 108.614,328.397 108.156,328.522 108.032 C 328.646 107.907,329.104 107.449,329.540 107.014 C 329.975 106.578,330.434 106.120,330.558 105.995 C 330.683 105.871,331.141 105.413,331.576 104.977 C 332.012 104.542,332.455 104.098,332.562 103.991 C 332.669 103.885,333.113 103.441,333.548 103.005 C 333.984 102.570,334.428 102.126,334.534 102.019 C 334.641 101.912,335.114 101.440,335.584 100.969 C 336.055 100.498,336.542 100.011,336.667 99.887 C 336.791 99.762,337.220 99.333,337.621 98.933 C 338.021 98.533,338.465 98.089,338.607 97.947 C 338.943 97.613,340.825 95.730,341.160 95.394 C 341.302 95.252,341.774 94.779,342.210 94.344 C 342.645 93.908,343.103 93.450,343.228 93.326 C 343.352 93.201,343.810 92.743,344.246 92.308 C 344.681 91.872,345.111 91.443,345.200 91.354 C 345.289 91.265,345.718 90.835,346.154 90.400 C 346.589 89.964,347.076 89.477,347.236 89.317 C 347.396 89.158,347.883 88.671,348.318 88.235 C 348.754 87.800,349.212 87.342,349.336 87.217 C 349.461 87.093,349.919 86.635,350.354 86.199 C 350.790 85.764,351.248 85.305,351.373 85.181 C 351.497 85.057,351.955 84.598,352.391 84.163 C 352.826 83.727,353.255 83.298,353.345 83.209 C 353.879 82.674,355.165 81.380,355.596 80.943 C 355.874 80.661,356.332 80.202,356.614 79.924 C 356.896 79.646,357.354 79.188,357.632 78.906 C 357.910 78.624,358.368 78.166,358.650 77.887 C 358.932 77.608,359.380 77.163,359.645 76.898 C 359.910 76.633,360.484 76.061,360.921 75.627 C 361.358 75.193,361.817 74.736,361.942 74.612 C 362.066 74.487,362.525 74.029,362.960 73.594 C 363.396 73.158,363.854 72.700,363.978 72.575 C 364.103 72.451,364.561 71.993,364.996 71.557 C 365.432 71.122,365.890 70.664,366.014 70.539 C 366.139 70.415,366.597 69.957,367.032 69.521 C 367.468 69.086,367.926 68.627,368.051 68.503 C 368.175 68.379,368.633 67.920,369.069 67.485 C 369.504 67.049,369.962 66.591,370.087 66.467 C 370.211 66.342,370.668 65.883,371.102 65.446 C 371.536 65.009,372.108 64.435,372.373 64.170 C 372.638 63.905,373.083 63.457,373.362 63.175 C 373.641 62.893,374.099 62.435,374.381 62.157 C 374.663 61.879,375.121 61.421,375.399 61.139 C 375.678 60.857,376.136 60.399,376.418 60.121 C 376.700 59.843,377.158 59.385,377.436 59.103 C 377.714 58.821,378.172 58.363,378.454 58.085 C 378.919 57.626,380.152 56.402,380.720 55.833 C 380.845 55.709,381.303 55.251,381.738 54.815 C 382.174 54.380,382.618 53.936,382.724 53.829 C 382.831 53.722,383.289 53.264,383.742 52.811 C 384.196 52.358,384.668 51.885,384.793 51.761 C 384.917 51.637,385.375 51.178,385.811 50.743 C 386.246 50.307,386.704 49.849,386.829 49.725 C 387.398 49.156,388.622 47.924,389.080 47.459 C 389.358 47.177,389.816 46.718,390.098 46.440 C 390.380 46.162,390.838 45.704,391.116 45.422 C 391.394 45.140,391.852 44.686,392.134 44.412 C 393.129 43.448,393.546 42.703,393.043 42.790 C 392.950 42.806,390.347 45.376,387.259 48.502 M309.395 54.921 C 309.319 55.139,308.859 55.622,308.371 55.995 C 307.884 56.369,307.423 56.852,307.347 57.070 C 307.271 57.288,307.118 57.466,307.006 57.466 C 306.894 57.466,306.454 57.833,306.028 58.282 C 305.203 59.151,305.208 59.146,304.040 60.306 C 303.622 60.722,303.164 61.194,303.022 61.356 C 302.880 61.519,302.422 61.976,302.004 62.372 C 301.586 62.769,301.118 63.227,300.963 63.391 C 300.445 63.939,298.759 65.635,298.461 65.907 C 298.298 66.055,297.826 66.518,297.410 66.936 C 296.995 67.354,296.554 67.798,296.429 67.922 C 296.305 68.047,295.847 68.505,295.411 68.940 C 294.975 69.376,294.500 69.849,294.354 69.991 C 294.208 70.133,293.764 70.591,293.368 71.009 C 292.971 71.426,292.514 71.885,292.352 72.027 C 291.971 72.360,290.686 73.645,290.353 74.026 C 290.210 74.188,289.752 74.646,289.334 75.042 C 288.917 75.439,288.458 75.882,288.316 76.028 C 288.174 76.174,287.702 76.650,287.266 77.085 C 286.831 77.521,286.373 77.979,286.248 78.103 C 285.679 78.672,284.455 79.904,283.997 80.369 C 283.719 80.652,283.261 81.110,282.979 81.388 C 282.697 81.666,282.239 82.124,281.961 82.406 C 281.683 82.688,281.224 83.146,280.942 83.424 C 280.661 83.702,280.206 84.160,279.933 84.442 C 279.659 84.724,279.121 85.226,278.737 85.558 C 278.338 85.903,278.137 86.224,278.269 86.305 C 278.397 86.384,283.286 81.633,289.135 75.747 C 294.983 69.861,299.875 64.943,300.005 64.819 C 300.283 64.553,301.485 63.346,302.199 62.617 C 302.475 62.335,302.817 61.988,302.958 61.846 C 303.100 61.704,303.573 61.231,304.008 60.796 C 304.444 60.360,304.902 59.902,305.026 59.778 C 305.151 59.653,305.609 59.195,306.044 58.759 C 306.480 58.324,306.926 57.880,307.036 57.773 C 307.146 57.667,307.644 57.138,308.143 56.599 C 308.642 56.060,309.050 55.682,309.050 55.760 C 309.050 55.837,309.192 55.769,309.365 55.608 C 309.539 55.448,309.635 55.240,309.578 55.147 C 309.522 55.054,309.583 54.977,309.715 54.977 C 309.847 54.977,309.955 54.876,309.955 54.751 C 309.955 54.373,309.542 54.498,309.395 54.921 M38.610 75.057 C 38.552 75.150,38.808 75.481,39.177 75.792 C 39.547 76.103,40.072 76.588,40.343 76.870 C 40.615 77.152,41.068 77.610,41.350 77.888 C 41.632 78.166,42.090 78.624,42.368 78.906 C 42.646 79.188,43.104 79.646,43.386 79.924 C 43.668 80.202,44.126 80.661,44.404 80.943 C 44.863 81.408,46.087 82.640,46.655 83.209 C 46.780 83.333,47.224 83.777,47.641 84.195 C 48.059 84.613,48.517 85.071,48.660 85.213 C 48.802 85.355,49.258 85.813,49.673 86.231 C 50.088 86.649,50.561 87.107,50.723 87.249 C 50.885 87.391,51.344 87.850,51.742 88.267 C 52.141 88.685,52.701 89.251,52.987 89.524 C 53.273 89.798,53.617 90.154,53.752 90.316 C 53.887 90.478,54.340 90.891,54.757 91.233 C 55.175 91.575,55.436 91.855,55.336 91.855 C 55.153 91.855,56.112 92.776,57.045 93.495 C 57.327 93.713,57.490 93.891,57.407 93.891 C 57.324 93.891,57.481 94.127,57.757 94.415 C 58.032 94.703,58.333 94.901,58.426 94.855 C 58.570 94.784,58.158 94.252,57.290 93.389 C 57.165 93.265,56.692 92.793,56.239 92.340 C 55.786 91.887,55.313 91.414,55.188 91.290 C 54.070 90.174,52.666 88.759,46.269 82.296 C 38.856 74.808,38.797 74.752,38.610 75.057 M277.651 86.719 C 277.491 86.869,277.019 87.333,276.601 87.751 C 276.183 88.169,275.739 88.612,275.615 88.737 C 275.490 88.861,275.046 89.303,274.629 89.718 C 274.211 90.133,273.756 90.606,273.618 90.768 C 273.481 90.931,273.124 91.276,272.827 91.536 C 272.529 91.796,272.069 92.254,271.805 92.554 C 271.541 92.854,270.981 93.422,270.561 93.816 C 269.531 94.780,269.160 95.253,269.312 95.406 C 269.435 95.528,278.281 86.787,278.281 86.544 C 278.281 86.343,277.956 86.434,277.651 86.719 M58.993 95.428 C 59.211 95.651,59.427 95.741,59.473 95.628 C 59.520 95.515,59.418 95.334,59.247 95.226 C 58.718 94.891,58.578 95.003,58.993 95.428 M130.467 95.400 C 130.377 95.491,134.146 99.453,136.642 101.891 C 136.787 102.033,137.231 102.491,137.628 102.909 C 138.024 103.327,138.481 103.785,138.643 103.927 C 138.805 104.069,139.162 104.412,139.435 104.688 C 162.800 128.323,183.529 149.095,183.750 149.095 C 184.118 149.095,183.928 148.510,183.454 148.183 C 183.188 148.000,182.857 147.718,182.719 147.556 C 182.580 147.393,182.139 146.935,181.738 146.537 C 181.338 146.140,180.909 145.713,180.785 145.588 C 180.661 145.464,180.102 144.904,179.542 144.344 C 178.982 143.784,178.421 143.224,178.296 143.100 C 178.172 142.975,177.684 142.488,177.213 142.017 C 176.743 141.547,176.285 141.088,176.195 140.999 C 176.106 140.910,175.677 140.481,175.241 140.045 C 174.806 139.610,174.319 139.123,174.159 138.963 C 173.999 138.803,173.512 138.316,173.077 137.881 C 172.641 137.445,172.183 136.987,172.059 136.863 C 171.934 136.738,171.476 136.280,171.041 135.845 C 170.605 135.409,170.147 134.951,170.023 134.827 C 169.898 134.702,169.440 134.244,169.005 133.808 C 168.569 133.373,168.111 132.915,167.986 132.790 C 167.862 132.666,167.418 132.222,167.000 131.804 C 166.582 131.386,166.124 130.929,165.982 130.787 C 163.900 128.711,159.569 124.383,159.421 124.231 C 159.314 124.121,158.871 123.675,158.435 123.239 C 158.000 122.804,157.541 122.345,157.417 122.221 C 157.293 122.097,156.834 121.638,156.399 121.203 C 155.963 120.767,155.505 120.309,155.381 120.185 C 155.256 120.060,154.798 119.602,154.363 119.167 C 153.927 118.731,153.469 118.273,153.345 118.149 C 153.220 118.024,152.762 117.566,152.327 117.130 C 151.891 116.695,151.433 116.237,151.308 116.112 C 151.184 115.988,150.726 115.530,150.290 115.094 C 149.855 114.659,149.410 114.215,149.301 114.108 C 149.155 113.965,140.808 105.615,138.670 103.475 C 138.529 103.333,138.056 102.860,137.621 102.425 C 137.185 101.989,136.727 101.531,136.603 101.406 C 136.478 101.282,136.037 100.838,135.621 100.420 C 135.206 100.003,134.733 99.544,134.571 99.402 C 134.409 99.260,133.954 98.802,133.560 98.384 C 133.166 97.966,132.708 97.510,132.542 97.370 C 132.376 97.230,131.868 96.703,131.413 96.198 C 130.958 95.694,130.533 95.334,130.467 95.400 M268.326 95.959 C 268.015 96.332,267.530 96.859,267.248 97.131 C 266.966 97.402,266.507 97.855,266.229 98.137 C 265.951 98.419,265.493 98.877,265.211 99.155 C 264.929 99.433,264.471 99.891,264.193 100.173 C 263.915 100.455,263.457 100.913,263.175 101.191 C 262.893 101.469,262.435 101.928,262.157 102.209 C 261.879 102.491,261.418 102.950,261.132 103.228 C 260.846 103.506,260.286 104.075,259.887 104.493 C 259.489 104.911,259.030 105.369,258.868 105.511 C 258.705 105.653,258.233 106.111,257.818 106.529 C 257.402 106.947,256.961 107.391,256.836 107.515 C 256.712 107.640,256.254 108.098,255.818 108.533 C 255.383 108.969,254.939 109.412,254.832 109.519 C 253.952 110.399,252.971 111.390,252.557 111.817 C 252.284 112.100,251.927 112.447,251.765 112.589 C 251.603 112.731,251.145 113.189,250.746 113.607 C 250.348 114.025,249.788 114.594,249.502 114.872 C 249.216 115.150,248.754 115.608,248.476 115.890 C 248.198 116.172,247.740 116.630,247.458 116.908 C 247.176 117.186,246.718 117.644,246.440 117.926 C 246.162 118.208,245.704 118.666,245.422 118.944 C 244.932 119.428,244.513 119.850,243.385 120.994 C 243.103 121.279,242.531 121.839,242.114 122.238 C 241.696 122.637,241.238 123.096,241.095 123.259 C 240.953 123.421,240.603 123.777,240.317 124.050 C 240.031 124.324,239.471 124.889,239.073 125.307 C 238.674 125.725,238.216 126.183,238.053 126.325 C 237.672 126.659,236.388 127.944,236.054 128.325 C 235.912 128.487,235.454 128.946,235.036 129.344 C 234.618 129.743,234.049 130.303,233.771 130.589 C 233.493 130.875,233.034 131.336,232.752 131.614 C 232.470 131.892,232.012 132.350,231.734 132.632 C 231.456 132.914,230.998 133.372,230.716 133.650 C 230.226 134.134,229.807 134.555,228.679 135.700 C 228.397 135.985,227.826 136.545,227.408 136.944 C 226.990 137.343,226.532 137.802,226.390 137.964 C 226.247 138.127,225.901 138.483,225.619 138.756 C 225.337 139.030,224.879 139.484,224.601 139.766 C 224.322 140.048,223.864 140.506,223.582 140.784 C 223.300 141.062,222.842 141.520,222.564 141.802 C 222.286 142.084,221.828 142.542,221.546 142.820 C 221.264 143.098,220.806 143.557,220.528 143.839 C 220.250 144.121,219.693 144.681,219.291 145.083 C 218.889 145.485,218.329 146.042,218.047 146.320 C 217.765 146.598,217.306 147.056,217.028 147.338 C 216.750 147.620,216.292 148.078,216.010 148.356 C 215.728 148.634,215.270 149.092,214.992 149.374 C 214.714 149.656,214.256 150.114,213.974 150.392 C 213.692 150.670,213.234 151.129,212.956 151.410 C 212.678 151.692,212.220 152.151,211.938 152.429 C 211.656 152.707,211.198 153.165,210.920 153.447 C 210.642 153.729,210.184 154.187,209.902 154.465 C 209.620 154.743,209.162 155.201,208.884 155.483 C 208.606 155.765,208.148 156.223,207.866 156.501 C 207.584 156.779,207.125 157.237,206.846 157.519 C 206.567 157.801,206.123 158.249,205.858 158.514 C 205.593 158.779,205.006 159.368,204.554 159.822 C 204.103 160.277,203.631 160.750,203.507 160.875 C 203.382 160.999,202.924 161.457,202.489 161.893 C 201.594 162.788,201.561 162.821,200.396 164.012 C 199.606 164.819,199.325 165.385,199.713 165.385 C 199.803 165.385,209.857 155.359,222.054 143.106 C 234.251 130.852,249.872 115.169,256.766 108.254 C 264.159 100.840,269.218 95.600,269.097 95.482 C 268.976 95.364,268.658 95.561,268.326 95.959 M77.376 114.037 C 77.376 114.379,77.545 114.571,79.917 116.908 C 80.199 117.186,80.657 117.644,80.935 117.926 C 81.213 118.208,81.672 118.666,81.953 118.944 C 82.235 119.222,82.694 119.681,82.973 119.962 C 83.618 120.615,84.362 121.359,85.015 122.004 C 85.297 122.283,85.755 122.742,86.033 123.024 C 86.311 123.306,86.769 123.764,87.051 124.042 C 87.333 124.320,87.791 124.778,88.069 125.060 C 88.347 125.342,88.805 125.800,89.087 126.078 C 89.369 126.356,89.827 126.814,90.105 127.096 C 90.383 127.378,90.842 127.836,91.123 128.114 C 91.405 128.392,91.864 128.851,92.142 129.133 C 92.595 129.593,93.865 130.871,94.457 131.463 C 94.581 131.587,95.025 132.031,95.443 132.449 C 95.861 132.867,96.305 133.311,96.429 133.435 C 96.554 133.560,96.995 134.003,97.410 134.421 C 97.826 134.839,98.298 135.297,98.461 135.439 C 98.623 135.581,99.082 136.040,99.480 136.457 C 99.878 136.875,100.438 137.445,100.724 137.723 C 101.010 138.001,101.472 138.459,101.750 138.741 C 102.028 139.023,102.486 139.481,102.768 139.759 C 103.050 140.037,103.508 140.495,103.786 140.777 C 104.064 141.059,104.522 141.518,104.804 141.796 C 105.465 142.450,106.209 143.194,106.846 143.839 C 107.327 144.325,108.611 145.617,109.099 146.105 C 109.223 146.229,109.681 146.687,110.117 147.123 C 110.552 147.558,111.011 148.017,111.135 148.141 C 111.259 148.265,111.718 148.724,112.153 149.159 C 112.589 149.595,113.047 150.053,113.171 150.177 C 113.296 150.302,113.737 150.745,114.152 151.163 C 114.568 151.581,115.040 152.039,115.203 152.181 C 115.365 152.324,115.820 152.782,116.214 153.200 C 117.169 154.213,117.652 154.595,117.795 154.452 C 117.860 154.387,111.907 148.294,104.566 140.911 C 97.224 133.529,88.176 124.409,84.459 120.645 C 77.946 114.050,77.376 113.519,77.376 114.037 M117.795 154.695 C 117.738 154.788,117.993 155.119,118.363 155.430 C 118.733 155.741,119.257 156.226,119.529 156.508 C 119.800 156.790,120.253 157.248,120.535 157.526 C 120.817 157.804,121.275 158.262,121.553 158.544 C 121.831 158.826,122.290 159.284,122.571 159.562 C 122.853 159.840,123.312 160.299,123.590 160.581 C 125.187 162.202,125.569 162.581,125.836 162.807 C 125.998 162.945,126.344 163.301,126.604 163.599 C 126.863 163.897,127.322 164.356,127.622 164.620 C 127.922 164.885,128.492 165.445,128.888 165.865 C 129.285 166.285,129.743 166.759,129.906 166.918 C 130.070 167.077,130.437 167.459,130.723 167.766 C 131.009 168.074,131.343 168.326,131.466 168.326 C 131.697 168.326,131.067 167.558,130.113 166.678 C 129.814 166.402,129.356 165.946,129.095 165.664 C 128.834 165.382,128.389 164.924,128.107 164.646 C 127.825 164.368,127.367 163.915,127.089 163.640 C 126.811 163.365,124.676 161.201,122.345 158.832 C 118.026 154.443,117.978 154.399,117.795 154.695 M271.073 165.129 C 270.690 165.486,270.433 165.833,270.500 165.900 C 270.608 166.008,271.946 164.766,271.946 164.559 C 271.946 164.374,271.728 164.517,271.073 165.129 M150.000 187.225 C 150.000 187.355,150.699 188.154,151.531 188.974 C 151.813 189.252,152.271 189.710,152.549 189.992 C 152.827 190.274,153.285 190.732,153.567 191.010 C 153.849 191.288,154.307 191.747,154.585 192.028 C 154.863 192.310,155.321 192.769,155.603 193.047 C 155.885 193.325,156.343 193.783,156.621 194.065 C 158.218 195.686,158.601 196.065,158.868 196.291 C 159.030 196.429,159.379 196.785,159.643 197.083 C 159.907 197.381,160.467 197.950,160.887 198.349 C 161.308 198.747,161.879 199.307,162.157 199.593 C 162.435 199.879,162.893 200.341,163.175 200.619 C 163.457 200.897,163.915 201.355,164.193 201.637 C 164.471 201.919,164.929 202.377,165.211 202.655 C 165.493 202.933,165.951 203.391,166.229 203.673 C 166.507 203.955,166.966 204.413,167.248 204.691 C 167.530 204.969,167.988 205.427,168.266 205.709 C 168.544 205.991,169.002 206.449,169.284 206.727 C 169.566 207.005,170.024 207.463,170.303 207.745 C 170.582 208.027,171.027 208.475,171.292 208.740 C 171.557 209.005,172.129 209.579,172.563 210.016 C 172.997 210.453,173.454 210.913,173.578 211.037 C 173.703 211.161,174.161 211.620,174.597 212.055 C 175.032 212.491,175.490 212.949,175.615 213.073 C 175.739 213.198,176.197 213.656,176.633 214.091 C 177.068 214.527,177.526 214.985,177.651 215.109 C 178.220 215.678,179.452 216.902,179.917 217.361 C 180.199 217.639,180.657 218.097,180.935 218.379 C 181.213 218.661,181.672 219.106,181.953 219.368 C 182.235 219.630,182.616 220.063,182.799 220.330 C 183.183 220.889,183.710 220.973,183.710 220.475 C 183.710 220.288,183.628 220.136,183.526 220.136 C 183.336 220.136,170.580 207.401,157.861 194.514 C 151.490 188.058,150.000 186.676,150.000 187.225 M220.483 215.829 C 218.624 217.691,217.168 219.280,217.247 219.359 C 217.409 219.521,217.770 219.248,218.911 218.100 C 219.990 217.014,219.848 217.155,222.148 214.902 C 224.033 213.055,224.503 212.443,224.036 212.443 C 223.941 212.443,222.342 213.967,220.483 215.829 M215.193 220.784 C 214.666 221.241,214.574 221.493,214.932 221.493 C 215.162 221.493,216.063 220.682,216.063 220.475 C 216.063 220.236,215.660 220.379,215.193 220.784 M184.478 221.399 C 184.554 221.595,184.615 221.799,184.615 221.851 C 184.615 221.903,184.768 221.946,184.955 221.946 C 185.380 221.946,185.385 221.778,184.971 221.364 C 184.544 220.937,184.307 220.953,184.478 221.399 M213.835 221.856 C 213.422 222.322,213.688 222.544,214.129 222.102 C 214.322 221.909,214.480 221.694,214.480 221.622 C 214.480 221.385,214.144 221.507,213.835 221.856 M185.520 222.075 C 185.520 222.352,186.173 222.835,186.737 222.977 C 187.129 223.075,187.330 223.034,187.330 222.856 C 187.330 222.708,187.209 222.627,187.062 222.676 C 186.914 222.726,186.608 222.581,186.383 222.356 C 185.987 221.960,185.520 221.808,185.520 222.075 M212.613 222.554 C 212.395 222.611,212.217 222.752,212.217 222.867 C 212.217 223.197,212.811 223.112,213.122 222.738 C 213.407 222.394,213.330 222.367,212.613 222.554 M210.633 223.756 C 210.633 223.880,210.786 223.982,210.973 223.982 C 211.160 223.982,211.312 223.880,211.312 223.756 C 211.312 223.631,211.160 223.529,210.973 223.529 C 210.786 223.529,210.633 223.631,210.633 223.756 M189.140 224.208 C 189.140 224.333,189.293 224.434,189.480 224.434 C 189.666 224.434,189.819 224.333,189.819 224.208 C 189.819 224.084,189.666 223.982,189.480 223.982 C 189.293 223.982,189.140 224.084,189.140 224.208 M209.729 224.208 C 209.729 224.333,209.881 224.434,210.068 224.434 C 210.255 224.434,210.407 224.333,210.407 224.208 C 210.407 224.084,210.255 223.982,210.068 223.982 C 209.881 223.982,209.729 224.084,209.729 224.208 M190.190 224.365 C 189.935 224.620,190.035 224.887,190.385 224.887 C 190.571 224.887,190.724 224.791,190.724 224.674 C 190.724 224.389,190.371 224.184,190.190 224.365 M208.974 224.359 C 208.714 224.619,208.810 224.887,209.163 224.887 C 209.350 224.887,209.502 224.734,209.502 224.548 C 209.502 224.194,209.235 224.099,208.974 224.359 M207.579 224.887 C 207.502 225.011,207.649 225.113,207.905 225.113 C 208.161 225.113,208.371 225.011,208.371 224.887 C 208.371 224.762,208.224 224.661,208.045 224.661 C 207.866 224.661,207.656 224.762,207.579 224.887 M192.534 225.339 C 192.534 225.464,192.738 225.566,192.986 225.566 C 193.235 225.566,193.439 225.464,193.439 225.339 C 193.439 225.215,193.235 225.113,192.986 225.113 C 192.738 225.113,192.534 225.215,192.534 225.339 M206.335 225.339 C 206.335 225.464,206.538 225.566,206.787 225.566 C 207.036 225.566,207.240 225.464,207.240 225.339 C 207.240 225.215,207.036 225.113,206.787 225.113 C 206.538 225.113,206.335 225.215,206.335 225.339 M194.118 225.792 C 194.118 225.916,194.321 226.018,194.570 226.018 C 194.819 226.018,195.023 225.916,195.023 225.792 C 195.023 225.667,194.819 225.566,194.570 225.566 C 194.321 225.566,194.118 225.667,194.118 225.792 M204.525 225.792 C 204.525 225.916,204.729 226.018,204.977 226.018 C 205.226 226.018,205.430 225.916,205.430 225.792 C 205.430 225.667,205.226 225.566,204.977 225.566 C 204.729 225.566,204.525 225.667,204.525 225.792 M197.118 226.180 C 197.462 226.232,197.971 226.231,198.250 226.177 C 198.528 226.124,198.247 226.081,197.624 226.083 C 197.002 226.085,196.775 226.128,197.118 226.180 M201.305 226.182 C 201.712 226.232,202.322 226.231,202.662 226.180 C 203.002 226.128,202.670 226.087,201.923 226.088 C 201.176 226.089,200.898 226.132,201.305 226.182 " stroke="none" fill="#d3d3d3" fill-rule="evenodd"></path><path id="path2" d="M20.814 0.452 C 20.814 0.577,20.645 0.679,20.437 0.679 C 20.230 0.679,20.123 0.742,20.201 0.819 C 20.404 1.023,21.493 0.710,21.493 0.448 C 21.493 0.326,21.340 0.226,21.154 0.226 C 20.967 0.226,20.814 0.328,20.814 0.452 M28.562 0.509 C 28.613 0.665,28.952 0.810,29.316 0.832 C 29.680 0.855,29.799 0.822,29.581 0.759 C 29.364 0.697,29.186 0.551,29.186 0.436 C 29.186 0.321,29.024 0.226,28.827 0.226 C 28.630 0.226,28.511 0.354,28.562 0.509 M370.814 0.452 C 370.814 0.577,370.645 0.679,370.437 0.679 C 370.230 0.679,370.123 0.742,370.201 0.819 C 370.404 1.023,371.493 0.710,371.493 0.448 C 371.493 0.326,371.340 0.226,371.154 0.226 C 370.967 0.226,370.814 0.328,370.814 0.452 M374.717 0.382 C 374.935 0.439,375.291 0.439,375.509 0.382 C 375.727 0.325,375.549 0.279,375.113 0.279 C 374.678 0.279,374.499 0.325,374.717 0.382 M378.507 0.448 C 378.507 0.710,379.596 1.023,379.799 0.819 C 379.877 0.742,379.770 0.679,379.563 0.679 C 379.355 0.679,379.186 0.577,379.186 0.452 C 379.186 0.328,379.033 0.226,378.846 0.226 C 378.660 0.226,378.507 0.326,378.507 0.448 M19.005 0.888 C 19.005 1.004,18.826 1.145,18.609 1.202 C 18.301 1.282,18.291 1.311,18.565 1.331 C 18.759 1.346,19.116 1.208,19.357 1.025 C 19.755 0.725,19.759 0.692,19.400 0.686 C 19.183 0.682,19.005 0.773,19.005 0.888 M30.694 0.843 C 30.528 1.112,31.379 1.502,31.616 1.265 C 31.689 1.191,31.588 1.131,31.391 1.131 C 31.194 1.131,30.992 1.009,30.943 0.860 C 30.877 0.662,30.809 0.657,30.694 0.843 M369.005 0.892 C 369.005 1.023,368.826 1.139,368.609 1.149 C 368.387 1.159,368.333 1.216,368.487 1.278 C 368.881 1.438,369.586 1.011,369.260 0.810 C 369.119 0.723,369.005 0.760,369.005 0.892 M380.825 0.962 C 380.876 1.117,381.164 1.263,381.466 1.286 C 381.796 1.311,381.856 1.282,381.618 1.213 C 381.400 1.150,381.222 1.004,381.222 0.888 C 381.222 0.773,381.111 0.679,380.977 0.679 C 380.842 0.679,380.773 0.806,380.825 0.962 M17.421 1.346 C 17.421 1.534,17.221 1.598,16.855 1.528 C 16.501 1.461,16.290 1.524,16.290 1.697 C 16.290 1.870,16.502 1.933,16.859 1.865 C 17.452 1.751,17.790 1.425,17.557 1.192 C 17.482 1.117,17.421 1.186,17.421 1.346 M32.371 1.288 C 32.349 1.609,32.490 1.699,33.333 1.901 C 33.754 2.001,33.924 1.973,33.829 1.819 C 33.749 1.690,33.444 1.584,33.150 1.584 C 32.857 1.584,32.566 1.456,32.503 1.301 C 32.420 1.097,32.384 1.093,32.371 1.288 M382.534 1.611 C 382.890 1.927,383.926 2.044,383.815 1.756 C 383.755 1.599,383.406 1.471,383.040 1.471 C 382.675 1.471,382.447 1.534,382.534 1.611 M15.158 2.149 C 15.158 2.335,15.328 2.402,15.611 2.328 C 15.860 2.263,16.063 2.183,16.063 2.149 C 16.063 2.116,15.860 2.036,15.611 1.971 C 15.328 1.897,15.158 1.964,15.158 2.149 M385.346 2.531 C 385.395 2.679,385.556 2.840,385.704 2.889 C 385.870 2.944,385.920 2.841,385.836 2.621 C 385.678 2.209,385.210 2.124,385.346 2.531 M13.575 2.941 C 13.575 3.066,13.371 3.167,13.122 3.167 C 12.873 3.167,12.670 3.269,12.670 3.394 C 12.670 3.518,12.564 3.620,12.434 3.620 C 12.304 3.620,11.973 3.842,11.699 4.114 L 11.199 4.608 11.878 4.183 C 12.251 3.949,12.835 3.619,13.174 3.448 C 13.849 3.110,14.194 2.715,13.814 2.715 C 13.682 2.715,13.575 2.817,13.575 2.941 M37.443 3.726 C 38.281 4.429,38.688 4.577,38.688 4.180 C 38.688 3.982,38.589 3.881,38.468 3.955 C 38.347 4.030,37.965 3.924,37.620 3.719 C 37.029 3.369,37.018 3.369,37.443 3.726 M362.267 3.746 C 361.990 3.940,361.662 4.036,361.538 3.959 C 361.414 3.882,361.312 3.982,361.312 4.180 C 361.312 4.568,361.656 4.451,362.557 3.757 C 363.149 3.300,362.916 3.291,362.267 3.746 M387.443 3.749 C 387.692 3.945,388.100 4.212,388.348 4.343 L 388.801 4.581 388.348 4.145 C 388.100 3.906,387.692 3.639,387.443 3.551 L 386.991 3.393 387.443 3.749 M359.841 5.305 C 359.591 5.560,358.980 6.091,358.483 6.485 C 357.986 6.879,357.630 7.250,357.692 7.309 C 357.755 7.369,358.412 6.873,359.154 6.207 C 359.895 5.541,360.455 4.962,360.398 4.919 C 360.341 4.876,360.090 5.050,359.841 5.305 M9.157 6.013 L 8.032 7.048 9.219 6.091 C 10.285 5.231,10.542 4.977,10.344 4.977 C 10.310 4.977,9.775 5.443,9.157 6.013 M40.716 6.043 C 41.280 6.567,41.822 7.000,41.920 7.005 C 42.017 7.010,41.712 6.688,41.241 6.290 C 39.876 5.136,39.600 5.007,40.716 6.043 M391.047 6.277 C 391.411 6.679,391.759 6.959,391.820 6.898 C 391.881 6.837,391.888 6.762,391.836 6.731 C 391.785 6.700,391.437 6.420,391.063 6.109 L 390.385 5.545 391.047 6.277 M392.081 7.108 C 392.081 7.346,392.763 7.991,392.885 7.869 C 392.943 7.812,392.785 7.580,392.535 7.354 C 392.286 7.128,392.081 7.017,392.081 7.108 M42.422 7.694 C 42.648 7.943,42.880 8.101,42.937 8.044 C 43.059 7.921,42.414 7.240,42.176 7.240 C 42.085 7.240,42.196 7.444,42.422 7.694 M353.814 11.148 C 351.993 12.918,350.364 14.483,350.195 14.625 C 350.025 14.767,349.565 15.225,349.171 15.643 C 348.777 16.061,348.287 16.540,348.081 16.708 C 347.876 16.876,347.764 17.070,347.833 17.139 C 347.901 17.208,350.072 15.162,352.655 12.594 C 355.239 10.025,357.302 7.925,357.240 7.926 C 357.178 7.928,355.636 9.377,353.814 11.148 M5.966 8.958 C 5.577 9.373,5.189 9.892,5.106 10.110 C 5.022 10.328,4.992 10.459,5.040 10.400 C 5.088 10.342,5.564 9.811,6.099 9.219 C 7.189 8.014,7.070 7.780,5.966 8.958 M43.213 8.239 C 43.213 8.478,43.894 9.122,44.017 9.000 C 44.074 8.943,43.916 8.711,43.667 8.485 C 43.417 8.260,43.213 8.149,43.213 8.239 M394.045 9.312 C 394.431 9.767,394.932 10.455,395.160 10.839 C 395.387 11.224,395.659 11.538,395.764 11.538 C 396.022 11.538,394.655 9.654,393.925 9.004 C 393.467 8.595,393.492 8.661,394.045 9.312 M44.458 9.730 C 44.684 9.980,44.916 10.137,44.973 10.080 C 45.095 9.957,44.450 9.276,44.212 9.276 C 44.121 9.276,44.232 9.480,44.458 9.730 M45.249 10.275 C 45.249 10.514,45.930 11.159,46.053 11.036 C 46.110 10.979,45.952 10.748,45.703 10.522 C 45.453 10.296,45.249 10.185,45.249 10.275 M4.481 11.029 C 4.050 11.532,3.787 11.991,3.931 11.991 C 3.992 11.991,4.259 11.686,4.525 11.312 C 5.052 10.572,5.025 10.396,4.481 11.029 M57.466 22.738 C 63.749 29.021,68.933 34.163,68.985 34.163 C 69.037 34.163,69.004 34.087,68.910 33.993 C 68.817 33.900,63.707 28.758,57.555 22.568 C 51.402 16.377,46.295 11.312,46.206 11.312 C 46.116 11.312,51.183 16.454,57.466 22.738 M1.528 16.403 C 1.591 16.733,1.531 16.968,1.384 16.968 C 1.245 16.968,1.131 17.274,1.131 17.647 C 1.131 18.020,1.029 18.326,0.905 18.326 C 0.781 18.326,0.679 18.428,0.679 18.552 C 0.679 19.073,1.127 18.723,1.330 18.043 C 1.450 17.639,1.652 16.977,1.777 16.572 C 1.953 16.005,1.938 15.837,1.712 15.837 C 1.523 15.837,1.458 16.036,1.528 16.403 M398.222 16.568 C 398.348 16.975,398.550 17.639,398.670 18.043 C 398.873 18.723,399.321 19.073,399.321 18.552 C 399.321 18.428,399.219 18.326,399.095 18.326 C 398.971 18.326,398.869 18.077,398.869 17.774 C 398.869 17.470,398.767 17.158,398.643 17.081 C 398.518 17.005,398.416 16.750,398.416 16.516 C 398.416 16.282,398.321 16.031,398.205 15.959 C 398.080 15.882,398.087 16.133,398.222 16.568 M342.129 22.753 C 339.031 25.879,336.756 28.006,336.608 27.914 C 336.454 27.819,336.419 27.861,336.517 28.020 C 336.617 28.181,330.556 34.427,320.658 44.361 C 311.847 53.206,304.590 60.510,304.531 60.594 C 304.388 60.799,307.749 57.633,307.941 57.383 C 308.023 57.275,317.034 48.239,327.964 37.304 C 338.894 26.368,347.738 17.424,347.617 17.428 C 347.497 17.432,345.027 19.828,342.129 22.753 M399.113 19.613 C 399.103 19.886,399.204 20.176,399.336 20.258 C 399.655 20.455,399.945 20.157,399.631 19.954 C 399.498 19.867,399.331 19.644,399.260 19.457 C 399.172 19.226,399.125 19.276,399.113 19.613 M0.486 19.834 C 0.318 20.016,0.243 20.228,0.320 20.305 C 0.510 20.495,0.977 20.006,0.874 19.725 C 0.829 19.602,0.655 19.651,0.486 19.834 M0.168 22.247 C 0.075 22.475,0.006 22.933,0.014 23.265 L 0.029 23.869 0.250 23.314 C 0.372 23.009,0.441 22.550,0.404 22.296 C 0.340 21.866,0.323 21.862,0.168 22.247 M399.586 22.398 C 399.597 23.332,399.953 24.297,399.962 23.416 C 399.965 23.043,399.881 22.534,399.774 22.285 C 399.597 21.874,399.580 21.884,399.586 22.398 M399.650 27.478 C 399.564 28.056,399.549 28.583,399.616 28.651 C 399.684 28.719,399.811 28.302,399.897 27.725 C 399.984 27.148,399.999 26.620,399.931 26.553 C 399.863 26.485,399.737 26.901,399.650 27.478 M0.019 27.262 C 0.013 27.636,0.106 28.094,0.226 28.281 C 0.512 28.723,0.512 27.702,0.226 27.036 C 0.059 26.648,0.030 26.680,0.019 27.262 M0.226 30.079 C 0.226 30.228,0.379 30.502,0.566 30.688 C 0.857 30.979,0.905 30.981,0.905 30.700 C 0.905 30.520,0.752 30.245,0.566 30.090 C 0.309 29.878,0.226 29.875,0.226 30.079 M399.398 30.122 C 399.263 30.291,399.098 30.735,399.031 31.109 C 398.965 31.482,398.865 31.991,398.809 32.240 C 398.753 32.489,398.751 32.565,398.805 32.410 C 398.858 32.254,398.996 32.127,399.112 32.127 C 399.227 32.127,399.321 31.779,399.321 31.354 C 399.321 30.929,399.438 30.542,399.581 30.494 C 399.725 30.446,399.797 30.274,399.743 30.111 C 399.663 29.870,399.598 29.872,399.398 30.122 M0.686 31.731 C 0.682 31.949,0.773 32.127,0.888 32.127 C 1.004 32.127,1.145 32.305,1.202 32.523 C 1.282 32.830,1.311 32.840,1.331 32.566 C 1.346 32.372,1.208 32.016,1.025 31.774 C 0.725 31.377,0.692 31.373,0.686 31.731 M1.254 33.243 C 1.172 33.376,1.212 33.484,1.344 33.484 C 1.476 33.484,1.584 33.739,1.584 34.050 C 1.584 34.361,1.678 34.615,1.794 34.615 C 1.922 34.615,1.925 34.338,1.801 33.906 C 1.557 33.053,1.450 32.925,1.254 33.243 M398.416 33.090 C 398.416 33.122,398.322 33.478,398.206 33.882 C 398.076 34.334,398.076 34.615,398.206 34.615 C 398.322 34.615,398.416 34.381,398.416 34.095 C 398.416 33.809,398.538 33.452,398.688 33.303 C 398.899 33.092,398.899 33.032,398.688 33.032 C 398.538 33.032,398.416 33.058,398.416 33.090 M69.243 34.559 C 69.250 34.652,69.581 34.977,69.979 35.280 L 70.701 35.831 70.037 35.110 C 69.346 34.360,69.222 34.274,69.243 34.559 M2.262 36.156 C 2.262 36.278,2.424 36.439,2.621 36.514 C 2.841 36.599,2.944 36.548,2.889 36.383 C 2.777 36.045,2.262 35.859,2.262 36.156 M397.210 36.124 C 396.935 36.398,397.053 36.639,397.398 36.507 C 397.585 36.436,397.738 36.286,397.738 36.175 C 397.738 35.938,397.426 35.907,397.210 36.124 M3.102 37.330 C 3.167 37.579,3.310 37.783,3.420 37.783 C 3.530 37.783,3.620 37.886,3.620 38.012 C 3.620 38.356,4.607 39.813,4.843 39.816 C 4.955 39.818,4.896 39.641,4.711 39.423 C 4.526 39.205,4.099 38.544,3.762 37.952 C 3.099 36.792,2.916 36.619,3.102 37.330 M396.554 37.500 C 396.382 37.842,396.058 38.402,395.832 38.744 C 395.607 39.087,395.472 39.367,395.532 39.367 C 395.675 39.367,396.710 37.782,396.898 37.274 C 397.126 36.660,396.901 36.807,396.554 37.500 M6.168 41.728 C 6.571 42.280,7.033 42.738,7.196 42.746 C 7.358 42.754,7.062 42.302,6.537 41.742 C 5.335 40.460,5.241 40.456,6.168 41.728 M392.949 42.344 C 392.121 43.234,382.398 53.033,371.344 64.119 L 351.244 84.275 372.172 63.461 C 389.941 45.788,394.919 40.724,394.520 40.724 C 394.484 40.724,393.777 41.453,392.949 42.344 M8.180 43.665 C 8.553 44.038,8.920 44.344,8.996 44.344 C 9.072 44.344,8.842 44.038,8.484 43.665 C 8.127 43.292,7.759 42.986,7.667 42.986 C 7.576 42.986,7.806 43.292,8.180 43.665 M11.991 47.572 C 11.991 47.616,12.303 47.952,12.684 48.317 C 13.065 48.682,13.316 48.829,13.240 48.642 C 13.117 48.338,11.991 47.373,11.991 47.572 M21.833 57.466 C 26.435 62.070,30.252 65.837,30.314 65.837 C 30.377 65.837,26.662 62.070,22.059 57.466 C 17.456 52.862,13.639 49.095,13.577 49.095 C 13.515 49.095,17.230 52.862,21.833 57.466 M87.217 52.715 C 87.703 53.213,88.152 53.620,88.214 53.620 C 88.276 53.620,87.929 53.213,87.443 52.715 C 86.957 52.217,86.509 51.810,86.447 51.810 C 86.384 51.810,86.731 52.217,87.217 52.715 M89.706 55.204 C 90.192 55.701,90.640 56.109,90.703 56.109 C 90.765 56.109,90.418 55.701,89.932 55.204 C 89.446 54.706,88.998 54.299,88.935 54.299 C 88.873 54.299,89.220 54.706,89.706 55.204 M100.000 65.498 C 105.038 70.537,109.212 74.661,109.274 74.661 C 109.336 74.661,105.265 70.537,100.226 65.498 C 95.188 60.458,91.015 56.335,90.952 56.335 C 90.890 56.335,94.962 60.458,100.000 65.498 M302.257 62.826 C 301.203 63.907,300.520 64.656,300.742 64.489 C 301.404 63.992,304.459 60.860,304.281 60.860 C 304.223 60.860,303.312 61.744,302.257 62.826 M31.335 66.968 C 31.821 67.466,32.269 67.873,32.332 67.873 C 32.394 67.873,32.047 67.466,31.561 66.968 C 31.075 66.471,30.626 66.063,30.564 66.063 C 30.502 66.063,30.849 66.471,31.335 66.968 M33.371 69.005 C 33.857 69.502,34.306 69.910,34.368 69.910 C 34.430 69.910,34.083 69.502,33.597 69.005 C 33.111 68.507,32.663 68.100,32.600 68.100 C 32.538 68.100,32.885 68.507,33.371 69.005 M35.068 70.659 C 35.068 70.698,35.399 71.029,35.803 71.394 L 36.538 72.059 35.874 71.324 C 35.255 70.638,35.068 70.484,35.068 70.659 M37.104 72.695 C 37.104 72.734,37.435 73.065,37.839 73.431 L 38.575 74.095 37.910 73.360 C 37.291 72.674,37.104 72.520,37.104 72.695 M111.392 76.980 C 111.797 77.384,112.453 78.042,112.851 78.443 C 113.249 78.843,113.575 79.076,113.575 78.962 C 113.575 78.685,111.147 76.244,110.871 76.244 C 110.753 76.244,110.987 76.575,111.392 76.980 M113.801 79.309 C 113.801 79.531,114.957 80.594,115.073 80.478 C 115.135 80.416,114.920 80.099,114.596 79.775 C 114.014 79.193,113.801 79.068,113.801 79.309 M116.028 81.692 C 116.567 82.200,117.050 82.573,117.102 82.521 C 117.219 82.403,115.470 80.769,115.226 80.769 C 115.128 80.769,115.489 81.185,116.028 81.692 M46.947 82.807 C 47.173 83.056,47.404 83.214,47.461 83.157 C 47.584 83.034,46.939 82.353,46.701 82.353 C 46.610 82.353,46.721 82.557,46.947 82.807 M117.535 83.259 C 117.761 83.509,117.993 83.667,118.050 83.609 C 118.172 83.487,117.527 82.805,117.289 82.805 C 117.198 82.805,117.309 83.010,117.535 83.259 M118.326 83.790 C 118.326 84.030,120.412 86.225,120.529 86.108 C 120.579 86.058,120.104 85.475,119.473 84.814 C 118.842 84.153,118.326 83.692,118.326 83.790 M349.873 85.577 L 349.208 86.312 349.943 85.648 C 350.629 85.028,350.783 84.842,350.608 84.842 C 350.569 84.842,350.238 85.173,349.873 85.577 M131.109 96.833 C 136.832 102.557,141.557 107.240,141.609 107.240 C 141.662 107.240,141.662 107.197,141.610 107.145 C 131.413 96.840,120.985 86.425,120.864 86.425 C 120.776 86.425,125.386 91.109,131.109 96.833 M51.131 86.949 C 51.131 86.988,51.456 87.318,51.852 87.684 L 52.573 88.348 52.022 87.626 C 51.554 87.012,51.131 86.691,51.131 86.949 M347.614 87.839 L 346.719 88.801 347.681 87.907 C 348.210 87.415,348.643 86.982,348.643 86.945 C 348.643 86.774,348.446 86.945,347.614 87.839 M53.167 88.985 C 53.167 89.024,53.498 89.355,53.903 89.720 L 54.638 90.385 53.974 89.649 C 53.354 88.964,53.167 88.810,53.167 88.985 M345.348 90.102 L 344.683 90.837 345.419 90.173 C 346.104 89.553,346.258 89.367,346.083 89.367 C 346.044 89.367,345.713 89.697,345.348 90.102 M60.116 95.928 C 63.127 98.976,67.584 103.495,70.020 105.970 C 72.455 108.444,74.491 110.426,74.543 110.374 C 74.595 110.322,70.139 105.803,64.639 100.332 C 59.140 94.861,57.105 92.879,60.116 95.928 M266.615 98.699 L 265.950 99.434 266.686 98.770 C 267.371 98.150,267.525 97.964,267.350 97.964 C 267.311 97.964,266.980 98.295,266.615 98.699 M264.579 100.735 L 263.914 101.471 264.649 100.806 C 265.335 100.187,265.489 100.000,265.314 100.000 C 265.275 100.000,264.944 100.331,264.579 100.735 M334.956 100.451 C 334.730 100.701,334.619 100.905,334.710 100.905 C 334.948 100.905,335.593 100.224,335.470 100.101 C 335.413 100.044,335.182 100.201,334.956 100.451 M262.542 102.771 L 261.878 103.507 262.613 102.842 C 263.299 102.223,263.452 102.036,263.278 102.036 C 263.239 102.036,262.908 102.367,262.542 102.771 M260.506 104.808 L 259.842 105.543 260.577 104.878 C 261.262 104.259,261.416 104.072,261.241 104.072 C 261.202 104.072,260.872 104.403,260.506 104.808 M258.247 107.070 L 257.353 108.032 258.314 107.137 C 258.843 106.645,259.276 106.213,259.276 106.176 C 259.276 106.005,259.079 106.176,258.247 107.070 M142.308 107.989 C 142.308 108.028,142.639 108.359,143.043 108.725 L 143.778 109.389 143.114 108.654 C 142.494 107.968,142.308 107.815,142.308 107.989 M256.211 109.106 L 255.317 110.068 256.278 109.174 C 257.173 108.342,257.344 108.145,257.173 108.145 C 257.136 108.145,256.703 108.577,256.211 109.106 M144.345 110.068 C 144.655 110.441,144.935 110.789,144.966 110.841 C 144.997 110.893,145.072 110.885,145.133 110.824 C 145.194 110.763,144.915 110.416,144.512 110.051 L 143.780 109.389 144.345 110.068 M254.175 111.143 L 253.281 112.104 254.242 111.210 C 254.771 110.718,255.204 110.285,255.204 110.248 C 255.204 110.077,255.007 110.248,254.175 111.143 M75.001 111.087 C 75.227 111.337,75.459 111.495,75.516 111.437 C 75.638 111.315,74.993 110.633,74.755 110.633 C 74.664 110.633,74.775 110.838,75.001 111.087 M75.792 111.595 C 75.792 111.870,76.885 113.099,77.803 113.855 C 78.671 114.571,78.300 114.017,77.036 112.713 C 76.352 112.006,75.792 111.503,75.792 111.595 M238.574 126.753 L 224.095 141.290 238.631 126.811 C 252.144 113.351,253.269 112.217,253.110 112.217 C 253.079 112.217,246.537 118.758,238.574 126.753 M79.080 114.891 C 80.531 116.513,82.805 118.791,82.802 118.620 C 82.800 118.520,81.810 117.472,80.603 116.290 C 79.396 115.107,78.710 114.478,79.080 114.891 M83.032 118.978 C 83.032 119.198,83.911 120.021,84.006 119.889 C 84.043 119.838,83.838 119.571,83.552 119.295 C 83.266 119.020,83.032 118.877,83.032 118.978 M314.947 120.657 L 314.395 121.380 315.116 120.716 C 315.866 120.024,315.952 119.901,315.667 119.922 C 315.574 119.929,315.250 120.260,314.947 120.657 M155.430 121.336 C 155.430 121.376,155.748 121.708,156.137 122.073 C 156.632 122.538,156.758 122.595,156.556 122.262 C 156.307 121.851,155.430 121.130,155.430 121.336 M94.683 130.769 C 99.411 135.498,103.329 139.367,103.391 139.367 C 103.454 139.367,99.637 135.498,94.910 130.769 C 90.182 126.041,86.264 122.172,86.201 122.172 C 86.139 122.172,89.956 126.041,94.683 130.769 M159.502 125.410 C 159.502 125.449,159.833 125.780,160.238 126.145 L 160.973 126.810 160.308 126.075 C 159.689 125.389,159.502 125.235,159.502 125.410 M309.375 126.301 L 308.710 127.036 309.446 126.372 C 310.131 125.752,310.285 125.566,310.110 125.566 C 310.071 125.566,309.740 125.896,309.375 126.301 M307.120 128.563 L 305.769 129.977 307.183 128.627 C 308.497 127.373,308.701 127.149,308.534 127.149 C 308.499 127.149,307.862 127.786,307.120 128.563 M161.538 127.446 C 161.538 127.485,161.869 127.816,162.274 128.182 L 163.009 128.846 162.345 128.111 C 161.725 127.425,161.538 127.272,161.538 127.446 M163.584 129.456 C 163.811 129.800,183.119 149.083,183.178 149.024 C 183.212 148.990,178.794 144.538,173.360 139.130 C 167.926 133.723,163.526 129.370,163.584 129.456 M287.782 147.891 C 278.014 157.682,270.430 165.343,270.928 164.916 C 272.024 163.976,305.813 130.090,305.654 130.090 C 305.592 130.090,297.550 138.101,287.782 147.891 M104.412 140.498 C 104.898 140.995,105.346 141.403,105.409 141.403 C 105.471 141.403,105.124 140.995,104.638 140.498 C 104.152 140.000,103.703 139.593,103.641 139.593 C 103.579 139.593,103.926 140.000,104.412 140.498 M105.656 141.700 C 105.656 141.739,105.987 142.070,106.391 142.435 L 107.127 143.100 106.462 142.364 C 105.843 141.679,105.656 141.525,105.656 141.700 M222.723 142.590 L 222.059 143.326 222.794 142.661 C 223.199 142.296,223.529 141.965,223.529 141.926 C 223.529 141.751,223.343 141.905,222.723 142.590 M112.217 148.284 C 112.217 148.523,112.899 149.168,113.021 149.045 C 113.078 148.988,112.921 148.757,112.671 148.531 C 112.421 148.305,112.217 148.194,112.217 148.284 M185.945 152.018 C 187.390 153.502,188.609 154.679,188.653 154.635 C 188.755 154.533,188.362 154.058,187.217 152.895 C 186.719 152.389,186.335 151.811,186.362 151.610 C 186.390 151.409,186.357 151.369,186.289 151.520 C 186.212 151.692,185.703 151.330,184.938 150.559 C 184.263 149.878,183.622 149.321,183.514 149.321 C 183.405 149.321,184.499 150.535,185.945 152.018 M212.217 153.162 C 211.657 153.755,210.797 154.661,210.305 155.175 C 208.629 156.925,209.618 156.115,211.652 154.072 C 212.766 152.952,213.579 152.047,213.457 152.059 C 213.335 152.072,212.777 152.568,212.217 153.162 M188.914 154.845 C 188.914 155.084,189.596 155.729,189.718 155.606 C 189.775 155.549,189.618 155.318,189.368 155.092 C 189.118 154.866,188.914 154.755,188.914 154.845 M190.160 156.336 C 190.386 156.586,190.617 156.743,190.674 156.686 C 190.797 156.564,190.152 155.882,189.913 155.882 C 189.823 155.882,189.934 156.087,190.160 156.336 M204.647 160.798 C 202.163 163.321,199.987 165.385,199.812 165.385 C 199.636 165.385,198.744 164.621,197.829 163.688 C 196.914 162.755,196.088 161.991,195.995 161.991 C 195.902 161.991,196.635 162.805,197.624 163.801 C 198.614 164.796,199.580 165.611,199.771 165.611 C 200.111 165.611,209.466 156.419,209.266 156.281 C 209.209 156.243,207.131 158.275,204.647 160.798 M190.950 156.882 C 190.950 157.120,191.632 157.765,191.754 157.642 C 191.811 157.585,191.654 157.354,191.404 157.128 C 191.154 156.902,190.950 156.791,190.950 156.882 M193.665 159.842 C 194.717 160.899,195.654 161.765,195.748 161.765 C 195.841 161.765,195.059 160.899,194.011 159.842 C 192.963 158.784,192.026 157.919,191.929 157.919 C 191.832 157.919,192.613 158.784,193.665 159.842 M125.792 162.062 C 125.792 162.101,126.116 162.432,126.513 162.797 L 127.233 163.462 126.682 162.739 C 126.214 162.125,125.792 161.804,125.792 162.062 M132.741 169.005 C 135.752 172.053,140.309 176.675,142.867 179.276 C 145.425 181.877,147.562 183.961,147.617 183.907 C 147.671 183.853,143.114 179.230,137.490 173.635 C 131.866 168.040,129.729 165.956,132.741 169.005 M269.101 166.566 C 268.737 166.964,268.642 167.142,268.891 166.960 C 269.600 166.440,269.972 166.051,269.863 165.942 C 269.808 165.887,269.465 166.168,269.101 166.566 M267.532 168.102 C 267.175 168.474,266.958 168.778,267.049 168.778 C 267.283 168.778,268.395 167.641,268.277 167.523 C 268.223 167.469,267.888 167.730,267.532 168.102 M265.498 170.136 C 265.140 170.509,264.925 170.814,265.019 170.814 C 265.198 170.814,265.511 170.519,266.034 169.852 C 266.527 169.225,266.209 169.393,265.498 170.136 M263.228 172.442 C 262.486 173.213,262.078 173.696,262.324 173.517 C 262.948 173.059,264.907 171.041,264.727 171.041 C 264.645 171.041,263.971 171.671,263.228 172.442 M260.971 174.663 C 260.614 175.035,260.397 175.339,260.488 175.339 C 260.722 175.339,261.834 174.202,261.716 174.084 C 261.662 174.030,261.327 174.291,260.971 174.663 M258.934 176.699 C 258.578 177.071,258.361 177.376,258.452 177.376 C 258.685 177.376,259.797 176.238,259.679 176.120 C 259.626 176.066,259.291 176.327,258.934 176.699 M257.128 178.505 C 256.902 178.755,256.791 178.959,256.882 178.959 C 257.120 178.959,257.765 178.278,257.642 178.155 C 257.585 178.098,257.354 178.256,257.128 178.505 M255.092 180.542 C 254.866 180.791,254.755 180.995,254.845 180.995 C 255.084 180.995,255.729 180.314,255.606 180.191 C 255.549 180.134,255.318 180.292,255.092 180.542 M251.617 184.073 C 251.449 184.263,251.357 184.464,251.411 184.519 C 251.466 184.573,251.696 184.414,251.922 184.164 C 252.148 183.915,252.240 183.714,252.128 183.719 C 252.015 183.724,251.786 183.883,251.617 184.073 M148.830 185.320 C 149.474 185.957,150.000 186.568,150.000 186.678 C 150.000 186.788,150.127 186.879,150.283 186.880 C 150.438 186.882,151.416 187.740,152.455 188.789 C 153.494 189.837,154.563 190.873,154.830 191.091 C 155.098 191.309,153.688 189.843,151.697 187.834 C 149.706 185.825,147.983 184.177,147.869 184.172 C 147.754 184.167,148.187 184.684,148.830 185.320 M250.567 185.066 C 250.341 185.316,250.230 185.520,250.320 185.520 C 250.559 185.520,251.204 184.839,251.081 184.716 C 251.024 184.659,250.793 184.817,250.567 185.066 M249.581 186.109 C 249.413 186.300,249.320 186.500,249.375 186.555 C 249.430 186.610,249.660 186.450,249.886 186.200 C 250.112 185.951,250.204 185.750,250.092 185.755 C 249.979 185.760,249.749 185.919,249.581 186.109 M248.531 187.103 C 248.305 187.352,248.194 187.557,248.284 187.557 C 248.523 187.557,249.168 186.875,249.045 186.753 C 248.988 186.695,248.757 186.853,248.531 187.103 M247.545 188.146 C 247.377 188.336,247.284 188.536,247.339 188.591 C 247.394 188.646,247.624 188.486,247.849 188.237 C 248.075 187.987,248.168 187.787,248.055 187.791 C 247.943 187.796,247.713 187.956,247.545 188.146 M245.283 190.413 C 244.990 190.725,244.794 191.023,244.847 191.076 C 244.899 191.129,245.234 190.867,245.590 190.495 C 245.947 190.123,246.143 189.825,246.026 189.833 C 245.910 189.840,245.575 190.102,245.283 190.413 M243.246 192.450 C 242.954 192.761,242.758 193.059,242.810 193.112 C 242.863 193.165,243.198 192.904,243.554 192.532 C 243.911 192.160,244.107 191.861,243.990 191.869 C 243.874 191.877,243.539 192.138,243.246 192.450 M241.210 194.486 C 240.918 194.798,240.722 195.096,240.774 195.148 C 240.827 195.201,241.162 194.940,241.518 194.568 C 241.875 194.196,242.071 193.898,241.954 193.905 C 241.837 193.913,241.503 194.174,241.210 194.486 M158.145 194.512 C 158.145 194.622,158.474 195.011,158.877 195.376 C 159.464 195.909,159.520 195.930,159.159 195.482 C 158.424 194.567,158.145 194.300,158.145 194.512 M238.949 196.751 C 238.532 197.186,238.233 197.585,238.285 197.636 C 238.336 197.687,238.774 197.324,239.257 196.828 C 239.741 196.333,240.040 195.935,239.921 195.943 C 239.803 195.952,239.365 196.315,238.949 196.751 M167.760 204.299 C 172.239 208.778,175.954 212.443,176.016 212.443 C 176.078 212.443,172.465 208.778,167.986 204.299 C 163.508 199.819,159.793 196.154,159.731 196.154 C 159.669 196.154,163.282 199.819,167.760 204.299 M236.199 199.544 C 235.390 200.389,230.555 205.266,225.454 210.382 C 220.352 215.498,216.233 219.683,216.299 219.683 C 216.420 219.683,236.829 199.390,237.648 198.455 C 238.662 197.299,237.543 198.140,236.199 199.544 M177.036 213.575 C 177.522 214.072,177.971 214.480,178.033 214.480 C 178.095 214.480,177.748 214.072,177.262 213.575 C 176.776 213.077,176.328 212.670,176.266 212.670 C 176.203 212.670,176.550 213.077,177.036 213.575 M179.072 215.611 C 179.558 216.109,180.007 216.516,180.069 216.516 C 180.131 216.516,179.785 216.109,179.299 215.611 C 178.813 215.113,178.364 214.706,178.302 214.706 C 178.240 214.706,178.586 215.113,179.072 215.611 M180.769 217.265 C 180.769 217.304,181.100 217.635,181.505 218.001 L 182.240 218.665 181.575 217.930 C 180.956 217.244,180.769 217.091,180.769 217.265 M215.367 220.287 L 214.819 220.891 215.434 220.457 C 215.772 220.218,216.052 219.946,216.056 219.853 C 216.068 219.574,215.944 219.653,215.367 220.287 M183.944 220.295 C 183.948 220.394,184.202 220.658,184.509 220.882 C 184.817 221.105,185.065 221.207,185.061 221.108 C 185.057 221.009,184.802 220.745,184.495 220.521 C 184.188 220.298,183.940 220.196,183.944 220.295 M213.748 221.422 C 213.284 221.741,212.964 222.098,213.037 222.217 C 213.110 222.335,213.317 222.220,213.498 221.962 C 213.679 221.704,213.963 221.493,214.129 221.493 C 214.295 221.493,214.490 221.340,214.561 221.154 C 214.721 220.737,214.768 220.722,213.748 221.422 M186.425 222.152 C 186.736 222.406,187.093 222.615,187.217 222.616 C 187.459 222.618,187.050 222.304,186.312 221.923 C 186.012 221.768,186.050 221.844,186.425 222.152 M187.557 222.843 C 187.557 222.972,187.709 223.077,187.896 223.077 C 188.083 223.077,188.235 223.179,188.235 223.303 C 188.235 223.428,188.343 223.529,188.475 223.529 C 188.807 223.529,188.527 223.128,187.996 222.844 C 187.694 222.682,187.557 222.682,187.557 222.843 M191.063 224.434 C 191.140 224.559,191.380 224.661,191.597 224.661 C 191.814 224.661,192.111 224.781,192.259 224.928 C 192.406 225.076,192.595 225.128,192.678 225.044 C 192.761 224.961,192.461 224.739,192.010 224.550 C 191.049 224.149,190.874 224.127,191.063 224.434 M207.805 224.434 C 207.369 224.622,207.371 224.629,207.849 224.645 C 208.121 224.653,208.407 224.559,208.484 224.434 C 208.650 224.167,208.428 224.167,207.805 224.434 M193.269 225.043 C 193.487 225.100,193.665 225.241,193.665 225.356 C 193.665 225.471,193.843 225.562,194.061 225.558 C 194.419 225.552,194.415 225.520,194.018 225.219 C 193.776 225.036,193.420 224.899,193.226 224.913 C 192.952 224.934,192.962 224.962,193.269 225.043 M205.663 225.104 C 205.480 225.220,205.409 225.394,205.505 225.490 C 205.602 225.587,205.752 225.557,205.838 225.423 C 205.925 225.290,206.148 225.123,206.335 225.052 C 206.637 224.937,206.637 224.921,206.335 224.908 C 206.148 224.900,205.846 224.989,205.663 225.104 M195.192 225.499 C 195.472 225.553,195.701 225.692,195.701 225.808 C 195.701 225.923,195.854 226.018,196.041 226.018 C 196.227 226.018,196.380 225.927,196.380 225.816 C 196.380 225.550,195.788 225.332,195.174 225.370 C 194.691 225.401,194.691 225.402,195.192 225.499 M203.267 225.672 C 202.839 225.995,202.841 226.004,203.337 226.011 C 203.617 226.015,203.846 225.923,203.846 225.808 C 203.846 225.692,204.075 225.553,204.355 225.499 C 204.823 225.409,204.818 225.399,204.285 225.370 C 203.967 225.353,203.509 225.489,203.267 225.672 M199.265 225.952 C 199.545 226.005,200.003 226.005,200.283 225.952 C 200.563 225.898,200.334 225.853,199.774 225.853 C 199.214 225.853,198.985 225.898,199.265 225.952 " stroke="none" fill="#565656" fill-rule="evenodd"></path><path id="path3" d="M24.382 0.164 C 24.789 0.214,25.399 0.213,25.739 0.162 C 26.079 0.110,25.747 0.069,25.000 0.070 C 24.253 0.071,23.975 0.114,24.382 0.164 M374.382 0.164 C 374.789 0.214,375.399 0.213,375.739 0.162 C 376.079 0.110,375.747 0.069,375.000 0.070 C 374.253 0.071,373.975 0.114,374.382 0.164 M22.229 0.382 C 22.446 0.439,22.803 0.439,23.020 0.382 C 23.238 0.325,23.060 0.279,22.624 0.279 C 22.189 0.279,22.011 0.325,22.229 0.382 M364.932 2.036 C 364.932 2.161,364.772 2.262,364.577 2.262 C 364.381 2.262,364.068 2.415,363.882 2.602 C 363.452 3.032,363.556 3.028,364.445 2.585 C 365.051 2.283,365.417 1.810,365.045 1.810 C 364.983 1.810,364.932 1.912,364.932 2.036 M358.654 5.816 C 358.374 5.870,358.145 6.009,358.145 6.124 C 358.145 6.429,358.447 6.383,358.950 6.003 C 359.192 5.820,359.338 5.681,359.276 5.694 C 359.214 5.707,358.934 5.762,358.654 5.816 M41.516 6.452 C 41.765 6.628,42.085 6.871,42.227 6.992 C 42.369 7.113,42.543 7.156,42.612 7.086 C 42.809 6.889,42.255 6.432,41.629 6.274 C 41.088 6.137,41.083 6.145,41.516 6.452 M43.121 7.742 C 43.936 8.691,44.064 8.802,44.196 8.670 C 44.269 8.597,44.015 8.246,43.633 7.889 C 42.808 7.118,42.513 7.033,43.121 7.742 M44.344 8.963 C 44.344 9.050,45.266 10.047,46.394 11.178 C 47.522 12.310,50.484 15.304,52.976 17.833 C 55.469 20.362,57.557 22.382,57.617 22.323 C 57.733 22.207,57.002 21.284,56.171 20.498 C 55.895 20.237,55.538 19.889,55.379 19.725 C 55.221 19.562,54.749 19.104,54.331 18.707 C 53.913 18.311,53.455 17.854,53.313 17.691 C 53.091 17.438,52.683 17.025,51.276 15.630 C 51.134 15.489,49.672 14.027,48.028 12.381 C 44.771 9.122,44.344 8.726,44.344 8.963 M4.751 9.968 C 4.751 10.224,4.853 10.371,4.977 10.294 C 5.102 10.217,5.204 10.008,5.204 9.828 C 5.204 9.649,5.102 9.502,4.977 9.502 C 4.853 9.502,4.751 9.712,4.751 9.968 M394.796 9.828 C 394.796 10.008,394.898 10.217,395.023 10.294 C 395.147 10.371,395.249 10.224,395.249 9.968 C 395.249 9.712,395.147 9.502,395.023 9.502 C 394.898 9.502,394.796 9.649,394.796 9.828 M4.169 11.033 C 3.933 11.195,3.555 11.991,3.714 11.991 C 3.758 11.991,3.961 11.736,4.165 11.425 C 4.558 10.826,4.558 10.766,4.169 11.033 M395.840 11.432 C 396.280 12.105,396.375 12.135,396.223 11.554 C 396.161 11.314,395.966 11.062,395.791 10.995 C 395.543 10.900,395.553 10.995,395.840 11.432 M397.312 14.027 C 397.571 14.525,397.900 14.924,398.043 14.914 C 398.215 14.902,398.207 14.858,398.020 14.782 C 397.865 14.720,397.738 14.473,397.738 14.235 C 397.738 13.996,397.636 13.801,397.511 13.801 C 397.387 13.801,397.285 13.648,397.285 13.462 C 397.285 13.275,397.185 13.122,397.062 13.122 C 396.940 13.122,397.052 13.529,397.312 14.027 M338.405 25.881 C 337.332 26.926,336.515 27.843,336.590 27.918 C 336.666 27.993,336.612 28.054,336.472 28.054 C 336.332 28.054,335.296 28.996,334.168 30.147 C 333.041 31.298,332.030 32.327,331.921 32.434 C 331.812 32.541,331.352 32.999,330.899 33.452 C 330.446 33.905,329.988 34.363,329.881 34.470 C 329.774 34.577,329.331 35.021,328.895 35.456 C 328.460 35.892,328.002 36.350,327.877 36.474 C 327.753 36.599,327.294 37.057,326.859 37.492 C 326.423 37.928,325.951 38.401,325.809 38.543 C 325.667 38.685,325.223 39.126,324.823 39.524 C 324.423 39.922,323.979 40.380,323.837 40.542 C 323.695 40.704,323.236 41.162,322.819 41.558 C 322.401 41.955,321.943 42.398,321.801 42.544 C 321.658 42.690,321.186 43.166,320.750 43.601 C 320.315 44.037,319.871 44.484,319.764 44.595 C 319.658 44.706,318.686 45.660,317.605 46.715 C 316.524 47.770,315.734 48.692,315.849 48.763 C 315.964 48.834,319.367 45.553,323.411 41.471 C 327.455 37.389,330.973 33.846,331.229 33.597 C 331.484 33.348,332.020 32.803,332.419 32.385 C 332.818 31.967,333.277 31.509,333.440 31.367 C 333.602 31.225,333.958 30.878,334.231 30.596 C 334.659 30.154,335.597 29.207,336.506 28.298 C 336.648 28.155,337.090 27.712,337.488 27.311 C 337.885 26.911,338.343 26.467,338.506 26.325 C 338.668 26.183,339.129 25.700,339.529 25.251 C 339.930 24.802,340.362 24.434,340.491 24.434 C 340.619 24.434,340.724 24.333,340.724 24.208 C 340.724 23.732,340.295 24.042,338.405 25.881 M62.558 27.603 C 62.784 27.853,63.015 28.010,63.072 27.953 C 63.195 27.831,62.550 27.149,62.311 27.149 C 62.221 27.149,62.332 27.354,62.558 27.603 M64.480 29.525 C 65.221 30.290,65.385 30.417,65.385 30.228 C 65.385 30.051,64.068 28.733,63.892 28.733 C 63.793 28.733,64.058 29.089,64.480 29.525 M66.063 31.066 C 66.063 31.105,66.369 31.430,66.742 31.787 C 67.565 32.576,67.657 32.383,66.845 31.571 C 66.319 31.045,66.063 30.880,66.063 31.066 M68.100 33.102 C 68.100 33.141,68.430 33.472,68.835 33.838 L 69.570 34.502 68.906 33.767 C 68.286 33.082,68.100 32.928,68.100 33.102 M70.136 35.139 C 70.136 35.178,70.467 35.508,70.871 35.874 L 71.606 36.538 70.942 35.803 C 70.322 35.118,70.136 34.964,70.136 35.139 M4.207 39.446 C 4.372 39.884,5.437 41.046,5.421 40.770 C 5.416 40.683,5.105 40.255,4.730 39.819 C 4.356 39.383,4.120 39.215,4.207 39.446 M395.276 39.830 C 394.808 40.464,394.803 40.497,395.219 40.238 C 395.468 40.082,395.720 39.771,395.779 39.547 C 395.922 38.998,395.870 39.028,395.276 39.830 M5.886 41.799 C 5.884 42.079,5.984 42.308,6.109 42.308 C 6.392 42.308,6.392 42.068,6.109 41.629 C 5.931 41.355,5.889 41.387,5.886 41.799 M393.823 41.718 C 393.730 41.953,393.708 42.200,393.773 42.265 C 393.979 42.471,394.161 42.133,394.074 41.703 C 393.995 41.309,393.983 41.310,393.823 41.718 M391.049 44.627 L 390.385 45.362 391.120 44.697 C 391.805 44.078,391.959 43.891,391.784 43.891 C 391.745 43.891,391.415 44.222,391.049 44.627 M389.354 46.324 L 388.575 47.172 389.423 46.392 C 390.213 45.667,390.376 45.475,390.203 45.475 C 390.165 45.475,389.783 45.857,389.354 46.324 M315.207 49.163 C 313.743 50.532,313.348 50.948,313.348 51.124 C 313.348 51.235,313.145 51.392,312.896 51.471 C 312.647 51.550,312.443 51.766,312.443 51.952 C 312.443 52.149,312.335 52.222,312.182 52.128 C 312.020 52.028,311.982 52.066,312.082 52.227 C 312.179 52.384,312.097 52.489,311.878 52.489 C 311.676 52.489,311.575 52.591,311.653 52.717 C 311.731 52.843,311.483 53.123,311.102 53.339 C 310.697 53.570,310.408 53.921,310.405 54.186 C 310.401 54.561,310.363 54.580,310.181 54.299 C 310.006 54.028,309.961 54.069,309.958 54.503 C 309.955 55.031,309.968 55.035,310.402 54.643 C 310.648 54.420,310.795 54.150,310.728 54.042 C 310.661 53.934,310.723 53.846,310.865 53.846 C 311.115 53.846,315.837 49.233,315.837 48.989 C 315.837 48.787,315.514 48.876,315.207 49.163 M385.068 50.566 C 384.141 51.499,383.433 52.262,383.495 52.262 C 383.558 52.262,384.367 51.499,385.294 50.566 C 386.221 49.632,386.929 48.869,386.867 48.869 C 386.804 48.869,385.995 49.632,385.068 50.566 M15.498 51.357 C 15.984 51.855,16.432 52.262,16.495 52.262 C 16.557 52.262,16.210 51.855,15.724 51.357 C 15.238 50.860,14.789 50.452,14.727 50.452 C 14.665 50.452,15.012 50.860,15.498 51.357 M16.742 52.559 C 16.742 52.598,17.073 52.929,17.477 53.295 L 18.213 53.959 17.548 53.224 C 16.929 52.539,16.742 52.385,16.742 52.559 M382.452 53.224 L 381.787 53.959 382.523 53.295 C 383.208 52.675,383.362 52.489,383.187 52.489 C 383.148 52.489,382.817 52.820,382.452 53.224 M23.529 59.389 C 26.452 62.313,28.893 64.706,28.956 64.706 C 29.018 64.706,26.678 62.313,23.756 59.389 C 20.833 56.465,18.392 54.072,18.329 54.072 C 18.267 54.072,20.607 56.465,23.529 59.389 M373.981 61.708 L 366.403 69.344 374.038 61.766 C 378.238 57.598,381.674 54.162,381.674 54.130 C 381.674 53.971,381.023 54.612,373.981 61.708 M307.952 56.703 C 307.660 57.015,307.464 57.313,307.516 57.366 C 307.569 57.418,307.904 57.157,308.260 56.785 C 308.617 56.413,308.813 56.115,308.696 56.122 C 308.580 56.130,308.245 56.391,307.952 56.703 M91.855 57.084 C 91.855 57.123,92.186 57.454,92.590 57.820 L 93.326 58.484 92.661 57.749 C 92.042 57.063,91.855 56.910,91.855 57.084 M306.101 58.604 C 305.698 58.981,305.414 59.336,305.471 59.392 C 305.528 59.449,305.918 59.141,306.338 58.707 C 307.277 57.738,307.108 57.664,306.101 58.604 M94.683 59.955 C 95.169 60.452,95.618 60.860,95.680 60.860 C 95.742 60.860,95.396 60.452,94.910 59.955 C 94.423 59.457,93.975 59.050,93.913 59.050 C 93.850 59.050,94.197 59.457,94.683 59.955 M303.967 60.754 C 303.527 61.194,303.167 61.622,303.167 61.705 C 303.167 61.788,303.575 61.459,304.072 60.973 C 304.570 60.487,304.977 60.059,304.977 60.022 C 304.977 59.824,304.685 60.036,303.967 60.754 M99.887 65.158 C 102.124 67.398,104.005 69.231,104.068 69.231 C 104.130 69.231,102.350 67.398,100.113 65.158 C 97.876 62.919,95.995 61.086,95.932 61.086 C 95.870 61.086,97.650 62.919,99.887 65.158 M302.160 62.567 C 301.348 63.379,301.439 63.571,302.262 62.783 C 302.636 62.425,302.941 62.101,302.941 62.062 C 302.941 61.876,302.686 62.041,302.160 62.567 M297.610 67.251 L 296.946 67.986 297.681 67.322 C 298.085 66.956,298.416 66.626,298.416 66.587 C 298.416 66.412,298.230 66.566,297.610 67.251 M295.574 69.287 L 294.910 70.023 295.645 69.358 C 296.049 68.993,296.380 68.662,296.380 68.623 C 296.380 68.448,296.193 68.602,295.574 69.287 M104.299 69.528 C 104.299 69.567,104.630 69.898,105.034 70.263 L 105.769 70.928 105.105 70.192 C 104.485 69.507,104.299 69.353,104.299 69.528 M365.484 70.192 L 364.819 70.928 365.554 70.263 C 366.240 69.644,366.394 69.457,366.219 69.457 C 366.180 69.457,365.849 69.788,365.484 70.192 M105.882 71.112 C 105.882 71.150,106.213 71.481,106.618 71.847 L 107.353 72.511 106.688 71.776 C 106.069 71.091,105.882 70.937,105.882 71.112 M363.453 72.229 L 362.330 73.416 363.518 72.294 C 364.171 71.676,364.706 71.142,364.706 71.106 C 364.706 70.937,364.496 71.125,363.453 72.229 M108.145 73.416 C 108.567 73.852,108.963 74.208,109.025 74.208 C 109.088 74.208,108.793 73.852,108.371 73.416 C 107.949 72.981,107.553 72.624,107.490 72.624 C 107.428 72.624,107.723 72.981,108.145 73.416 M361.188 74.491 L 360.294 75.452 361.256 74.558 C 361.785 74.066,362.217 73.634,362.217 73.597 C 362.217 73.425,362.020 73.597,361.188 74.491 M358.922 76.753 L 358.258 77.489 358.993 76.824 C 359.679 76.205,359.833 76.018,359.658 76.018 C 359.619 76.018,359.288 76.349,358.922 76.753 M118.377 83.596 C 121.917 87.200,122.554 87.844,122.848 88.122 C 122.980 88.247,124.669 89.958,126.602 91.926 C 128.536 93.894,130.227 95.467,130.360 95.423 C 130.555 95.358,127.531 92.258,119.927 84.729 C 119.561 84.367,118.075 82.879,117.792 82.592 C 116.445 81.226,115.942 80.769,115.784 80.769 C 115.683 80.769,116.849 82.041,118.377 83.596 M53.283 89.588 C 53.195 89.732,53.183 89.910,53.258 89.985 C 53.333 90.060,53.394 89.991,53.394 89.833 C 53.394 89.674,53.702 89.875,54.079 90.279 C 54.456 90.682,54.811 90.966,54.868 90.909 C 54.924 90.853,54.627 90.473,54.208 90.067 C 53.697 89.572,53.391 89.414,53.283 89.588 M55.656 91.710 C 55.656 91.943,56.794 93.055,56.912 92.937 C 56.965 92.884,56.704 92.549,56.332 92.192 C 55.960 91.836,55.656 91.619,55.656 91.710 M59.867 96.339 C 59.804 96.441,59.965 96.670,60.225 96.848 C 60.485 97.026,60.913 97.406,61.175 97.692 C 61.437 97.978,61.993 98.538,62.411 98.936 C 62.829 99.335,63.287 99.793,63.429 99.956 C 63.572 100.118,64.030 100.591,64.448 101.006 C 64.865 101.421,65.309 101.863,65.434 101.987 C 65.558 102.112,66.016 102.570,66.452 103.005 C 66.887 103.441,67.345 103.899,67.470 104.023 C 67.594 104.148,68.038 104.592,68.456 105.009 C 68.874 105.427,69.332 105.885,69.474 106.028 C 69.616 106.170,70.081 106.653,70.507 107.102 C 70.933 107.551,71.374 107.919,71.486 107.919 C 71.597 107.919,71.754 108.122,71.833 108.371 C 71.912 108.620,72.071 108.824,72.187 108.824 C 72.514 108.824,72.436 108.421,72.047 108.097 C 71.726 107.831,71.140 107.253,69.747 105.830 C 69.471 105.548,69.138 105.215,69.007 105.090 C 68.876 104.966,66.846 102.904,64.495 100.509 C 60.161 96.093,60.070 96.011,59.867 96.339 M133.146 98.644 C 133.372 98.894,133.603 99.051,133.661 98.994 C 133.783 98.872,133.138 98.190,132.900 98.190 C 132.809 98.190,132.920 98.394,133.146 98.644 M265.418 99.458 C 265.250 99.648,265.158 99.848,265.212 99.903 C 265.267 99.958,265.497 99.799,265.723 99.549 C 265.949 99.299,266.041 99.099,265.929 99.104 C 265.816 99.108,265.586 99.268,265.418 99.458 M135.405 100.903 C 135.761 101.275,136.097 101.535,136.150 101.482 C 136.268 101.364,135.156 100.226,134.923 100.226 C 134.832 100.226,135.049 100.531,135.405 100.903 M263.382 101.494 C 263.214 101.684,263.121 101.885,263.176 101.939 C 263.231 101.994,263.461 101.835,263.687 101.585 C 263.912 101.335,264.005 101.135,263.893 101.140 C 263.780 101.145,263.550 101.304,263.382 101.494 M136.878 102.333 C 136.878 102.372,137.205 102.703,137.604 103.069 C 138.248 103.657,138.109 103.298,137.403 102.546 C 137.155 102.282,136.878 102.170,136.878 102.333 M261.346 103.530 C 261.178 103.720,261.085 103.921,261.140 103.976 C 261.195 104.030,261.424 103.871,261.650 103.621 C 261.876 103.372,261.969 103.171,261.856 103.176 C 261.744 103.181,261.514 103.340,261.346 103.530 M139.367 104.864 C 139.872 105.402,140.045 105.527,140.045 105.351 C 140.045 105.177,139.188 104.299,139.018 104.299 C 138.917 104.299,139.074 104.553,139.367 104.864 M143.213 108.668 C 143.213 108.707,143.544 109.038,143.948 109.403 L 144.683 110.068 144.019 109.333 C 143.399 108.647,143.213 108.493,143.213 108.668 M254.854 110.238 L 253.959 111.199 254.921 110.305 C 255.450 109.813,255.882 109.380,255.882 109.343 C 255.882 109.172,255.685 109.343,254.854 110.238 M252.817 112.274 L 251.923 113.235 252.885 112.341 C 253.779 111.509,253.950 111.312,253.779 111.312 C 253.742 111.312,253.309 111.745,252.817 112.274 M250.781 114.310 L 249.887 115.271 250.848 114.377 C 251.743 113.545,251.914 113.348,251.743 113.348 C 251.706 113.348,251.273 113.781,250.781 114.310 M246.829 118.269 L 244.005 121.154 246.889 118.329 C 248.476 116.776,249.774 115.478,249.774 115.445 C 249.774 115.282,249.453 115.590,246.829 118.269 M241.624 123.473 L 239.480 125.679 241.686 123.534 C 243.734 121.542,243.994 121.267,243.830 121.267 C 243.797 121.267,242.804 122.260,241.624 123.473 M95.362 131.674 C 97.848 134.163,99.934 136.199,99.996 136.199 C 100.058 136.199,98.075 134.163,95.588 131.674 C 93.102 129.186,91.017 127.149,90.954 127.149 C 90.892 127.149,92.876 129.186,95.362 131.674 M236.524 128.563 L 235.860 129.299 236.595 128.634 C 237.280 128.015,237.434 127.828,237.260 127.828 C 237.221 127.828,236.890 128.159,236.524 128.563 M164.932 130.614 C 164.932 130.653,165.263 130.984,165.667 131.349 L 166.403 132.014 165.738 131.278 C 165.119 130.593,164.932 130.439,164.932 130.614 M303.949 131.957 L 303.054 132.919 304.016 132.024 C 304.910 131.193,305.081 130.995,304.910 130.995 C 304.873 130.995,304.441 131.428,303.949 131.957 M172.511 138.235 C 175.620 141.346,178.215 143.891,178.277 143.891 C 178.339 143.891,175.847 141.346,172.738 138.235 C 169.629 135.124,167.034 132.579,166.972 132.579 C 166.910 132.579,169.402 135.124,172.511 138.235 M231.547 133.541 L 230.882 134.276 231.618 133.612 C 232.303 132.992,232.457 132.805,232.282 132.805 C 232.243 132.805,231.912 133.136,231.547 133.541 M301.912 133.993 L 301.018 134.955 301.980 134.060 C 302.874 133.229,303.045 133.032,302.874 133.032 C 302.837 133.032,302.404 133.464,301.912 133.993 M299.646 136.256 L 298.982 136.991 299.717 136.326 C 300.403 135.707,300.556 135.520,300.382 135.520 C 300.343 135.520,300.012 135.851,299.646 136.256 M101.018 137.330 C 101.504 137.828,101.953 138.235,102.015 138.235 C 102.077 138.235,101.730 137.828,101.244 137.330 C 100.758 136.833,100.310 136.425,100.248 136.425 C 100.185 136.425,100.532 136.833,101.018 137.330 M297.610 138.272 C 296.947 138.986,296.947 138.987,297.558 138.555 C 297.895 138.317,298.223 137.995,298.286 137.839 C 298.462 137.410,298.336 137.491,297.610 138.272 M102.262 138.532 C 102.262 138.571,102.593 138.902,102.998 139.268 L 103.733 139.932 103.069 139.197 C 102.449 138.511,102.262 138.358,102.262 138.532 M295.574 140.308 C 294.911 141.023,294.910 141.023,295.522 140.591 C 295.859 140.353,296.187 140.031,296.250 139.876 C 296.426 139.446,296.300 139.527,295.574 140.308 M293.665 142.195 C 293.373 142.506,293.216 142.760,293.316 142.760 C 293.486 142.760,294.344 141.882,294.344 141.707 C 294.344 141.532,294.171 141.656,293.665 142.195 M291.742 144.118 C 291.384 144.491,291.169 144.796,291.263 144.796 C 291.443 144.796,291.755 144.501,292.279 143.834 C 292.772 143.207,292.454 143.375,291.742 144.118 M179.977 145.701 C 180.842 146.572,181.600 147.285,181.662 147.285 C 181.724 147.285,181.068 146.572,180.204 145.701 C 179.339 144.830,178.581 144.118,178.519 144.118 C 178.457 144.118,179.113 144.830,179.977 145.701 M289.481 146.379 C 289.255 146.628,289.144 146.833,289.234 146.833 C 289.473 146.833,290.118 146.151,289.995 146.029 C 289.938 145.972,289.707 146.129,289.481 146.379 M287.215 148.645 C 286.859 149.017,286.642 149.321,286.733 149.321 C 286.966 149.321,288.078 148.184,287.960 148.066 C 287.907 148.012,287.571 148.273,287.215 148.645 M285.179 150.681 C 284.822 151.053,284.605 151.357,284.696 151.357 C 284.930 151.357,286.042 150.220,285.924 150.102 C 285.870 150.048,285.535 150.309,285.179 150.681 M282.920 152.940 C 282.694 153.189,282.583 153.394,282.673 153.394 C 282.912 153.394,283.557 152.712,283.434 152.590 C 283.377 152.533,283.146 152.690,282.920 152.940 M188.462 153.925 C 188.462 154.157,189.321 154.947,189.442 154.827 C 189.520 154.748,189.367 154.495,189.102 154.265 C 188.629 153.856,188.462 153.766,188.462 153.925 M189.593 155.100 C 189.593 155.208,193.079 158.824,195.079 160.791 C 195.483 161.189,195.893 161.596,195.989 161.696 C 198.641 164.457,199.548 165.328,199.548 165.116 C 199.548 164.819,199.176 164.402,197.039 162.298 C 196.930 162.191,195.522 160.766,193.909 159.131 C 192.296 157.496,190.942 156.192,190.900 156.234 C 190.858 156.276,190.623 156.011,190.378 155.644 C 189.976 155.044,189.593 154.779,189.593 155.100 M124.434 160.931 C 124.434 160.969,124.765 161.300,125.170 161.666 L 125.905 162.330 125.240 161.595 C 124.621 160.910,124.434 160.756,124.434 160.931 M126.471 162.999 C 126.471 163.157,127.604 164.253,127.768 164.253 C 127.847 164.253,127.620 163.948,127.262 163.575 C 126.622 162.906,126.471 162.796,126.471 162.999 M128.507 164.971 C 128.507 165.196,129.415 166.135,129.525 166.025 C 129.586 165.964,129.382 165.676,129.072 165.384 C 128.761 165.092,128.507 164.906,128.507 164.971 M264.140 171.867 C 260.905 175.160,258.124 177.975,257.959 178.124 C 257.795 178.272,257.439 178.634,257.168 178.928 C 256.896 179.222,255.414 180.711,253.874 182.237 C 252.334 183.762,250.986 185.100,250.879 185.209 C 250.772 185.318,248.441 187.698,245.699 190.498 C 239.839 196.481,240.727 195.586,238.875 197.372 C 238.045 198.173,237.416 198.879,237.478 198.941 C 237.541 199.004,242.474 194.151,248.441 188.158 C 254.408 182.166,259.392 177.161,259.518 177.036 C 266.994 169.626,270.588 166.024,270.588 165.941 C 270.588 165.440,269.220 166.698,264.140 171.867 M130.543 167.007 C 130.543 167.232,131.451 168.172,131.562 168.061 C 131.623 168.000,131.418 167.712,131.108 167.420 C 130.797 167.128,130.543 166.943,130.543 167.007 M131.598 168.552 C 131.867 168.660,132.154 168.961,132.236 169.219 C 132.318 169.478,132.480 169.631,132.595 169.560 C 132.711 169.489,132.805 169.567,132.805 169.733 C 132.805 169.900,133.025 170.186,133.293 170.369 C 133.561 170.552,133.994 170.945,134.255 171.244 C 135.311 172.453,136.411 173.392,136.577 173.227 C 136.790 173.014,131.930 168.325,131.511 168.340 C 131.184 168.352,131.200 168.391,131.598 168.552 M136.574 173.473 C 136.516 173.566,136.773 173.897,137.145 174.208 C 137.516 174.519,138.041 175.018,138.311 175.317 C 138.580 175.616,139.032 176.074,139.314 176.335 C 139.595 176.596,140.054 177.041,140.332 177.323 C 140.790 177.788,142.014 179.020,142.583 179.589 C 142.707 179.713,143.149 180.157,143.564 180.575 C 144.666 181.684,145.035 181.963,145.192 181.806 C 145.269 181.730,145.099 181.490,144.816 181.275 C 144.532 181.059,144.080 180.648,143.813 180.362 C 143.545 180.076,142.984 179.516,142.566 179.118 C 142.148 178.720,141.690 178.263,141.548 178.104 C 140.813 177.282,136.858 173.303,136.775 173.303 C 136.722 173.303,136.631 173.380,136.574 173.473 M160.407 197.130 C 160.407 197.169,160.738 197.499,161.143 197.865 L 161.878 198.529 161.213 197.794 C 160.594 197.109,160.407 196.955,160.407 197.130 M236.659 199.486 C 236.362 199.820,236.371 199.843,236.734 199.704 C 236.958 199.618,237.184 199.548,237.236 199.548 C 237.288 199.548,237.330 199.446,237.330 199.321 C 237.330 198.988,237.037 199.060,236.659 199.486 M163.348 200.071 C 163.348 200.110,163.679 200.441,164.084 200.806 L 164.819 201.471 164.155 200.735 C 163.535 200.050,163.348 199.896,163.348 200.071 M169.683 206.448 C 172.356 209.123,174.594 211.312,174.657 211.312 C 174.719 211.312,172.583 209.123,169.910 206.448 C 167.236 203.773,164.998 201.584,164.936 201.584 C 164.874 201.584,167.010 203.773,169.683 206.448 M220.024 216.075 C 217.924 218.197,216.047 220.027,215.852 220.141 C 215.554 220.315,215.571 220.349,215.957 220.355 C 216.209 220.359,216.565 220.133,216.747 219.853 C 216.929 219.573,218.660 217.740,220.594 215.781 C 222.528 213.821,224.050 212.217,223.976 212.217 C 223.902 212.217,222.124 213.953,220.024 216.075 M175.792 212.514 C 175.792 212.553,176.123 212.884,176.527 213.250 L 177.262 213.914 176.598 213.179 C 175.979 212.493,175.792 212.339,175.792 212.514 M179.864 216.610 C 179.864 216.849,180.546 217.493,180.668 217.371 C 180.725 217.314,180.568 217.082,180.318 216.856 C 180.068 216.631,179.864 216.520,179.864 216.610 M210.011 223.763 C 209.731 223.875,209.510 224.098,209.520 224.257 C 209.534 224.485,209.563 224.486,209.652 224.265 C 209.715 224.109,209.961 223.982,210.200 223.982 C 210.438 223.982,210.633 223.880,210.633 223.756 C 210.633 223.631,210.608 223.536,210.577 223.544 C 210.546 223.552,210.291 223.650,210.011 223.763 M199.155 226.180 C 199.499 226.232,200.008 226.231,200.286 226.177 C 200.564 226.124,200.283 226.081,199.661 226.083 C 199.038 226.085,198.811 226.128,199.155 226.180 " stroke="none" fill="#848484" fill-rule="evenodd"></path><path id="path4" d="M358.201 6.268 C 357.921 6.322,357.692 6.514,357.692 6.695 C 357.692 6.972,357.782 6.965,358.258 6.653 C 358.569 6.450,358.824 6.244,358.824 6.196 C 358.824 6.148,358.798 6.122,358.767 6.139 C 358.736 6.156,358.481 6.214,358.201 6.268 M42.534 7.231 C 42.534 7.521,43.181 8.252,43.317 8.115 C 43.363 8.069,43.205 7.791,42.967 7.498 C 42.729 7.204,42.534 7.084,42.534 7.231 M354.295 10.577 L 351.471 13.462 354.355 10.637 C 355.942 9.083,357.240 7.785,357.240 7.752 C 357.240 7.590,356.919 7.897,354.295 10.577 M350.768 13.640 C 350.630 13.791,350.274 14.127,349.976 14.386 C 349.678 14.646,349.218 15.104,348.954 15.405 C 348.690 15.705,348.130 16.275,347.710 16.671 C 346.758 17.570,346.529 17.798,345.630 18.751 C 345.234 19.171,344.665 19.731,344.367 19.995 C 344.069 20.259,343.597 20.716,343.318 21.009 C 343.039 21.303,342.692 21.660,342.548 21.801 C 340.856 23.460,340.441 23.982,340.813 23.982 C 340.862 23.982,342.466 22.404,344.376 20.475 C 348.074 16.742,348.080 16.737,348.900 15.958 C 349.194 15.679,349.648 15.207,349.908 14.909 C 350.169 14.611,350.602 14.217,350.870 14.034 C 351.349 13.707,351.521 13.340,351.188 13.357 C 351.094 13.362,350.905 13.489,350.768 13.640 M79.638 44.867 C 79.638 44.906,79.969 45.237,80.373 45.602 L 81.109 46.267 80.444 45.532 C 79.825 44.846,79.638 44.692,79.638 44.867 M83.484 48.713 C 83.484 48.752,83.815 49.083,84.219 49.449 L 84.955 50.113 84.290 49.378 C 83.671 48.692,83.484 48.539,83.484 48.713 M111.086 76.087 C 111.086 76.173,111.649 76.830,112.337 77.545 C 113.846 79.115,113.829 79.098,114.568 79.787 C 114.893 80.089,115.158 80.434,115.158 80.553 C 115.158 80.672,115.260 80.769,115.385 80.769 C 115.893 80.769,115.047 79.651,113.723 78.572 C 113.538 78.422,113.247 78.116,113.077 77.893 C 112.620 77.296,111.086 75.904,111.086 76.087 M338.560 97.115 L 337.896 97.851 338.631 97.186 C 339.317 96.567,339.471 96.380,339.296 96.380 C 339.257 96.380,338.926 96.711,338.560 97.115 M336.524 99.152 L 335.860 99.887 336.595 99.222 C 336.999 98.857,337.330 98.526,337.330 98.487 C 337.330 98.312,337.144 98.466,336.524 99.152 M331.999 103.676 L 331.335 104.412 332.070 103.747 C 332.475 103.382,332.805 103.051,332.805 103.012 C 332.805 102.837,332.619 102.991,331.999 103.676 M329.963 105.713 L 329.299 106.448 330.034 105.783 C 330.438 105.418,330.769 105.087,330.769 105.048 C 330.769 104.873,330.583 105.027,329.963 105.713 M72.398 108.792 C 72.398 109.003,72.618 109.326,72.886 109.509 C 73.154 109.692,73.587 110.087,73.847 110.387 C 74.108 110.687,74.568 111.146,74.871 111.405 C 75.173 111.665,75.828 112.311,76.327 112.839 C 76.827 113.368,77.326 113.801,77.438 113.801 C 77.678 113.801,77.035 113.087,74.378 110.406 C 73.149 109.165,72.398 108.553,72.398 108.792 M78.281 114.324 C 78.281 114.363,78.611 114.694,79.016 115.059 L 79.751 115.724 79.087 114.989 C 78.467 114.303,78.281 114.149,78.281 114.324 M80.543 116.629 C 80.965 117.064,81.361 117.421,81.424 117.421 C 81.486 117.421,81.191 117.064,80.769 116.629 C 80.347 116.193,79.951 115.837,79.889 115.837 C 79.826 115.837,80.121 116.193,80.543 116.629 M183.937 149.423 C 183.937 149.511,184.904 150.548,186.086 151.726 C 187.268 152.904,188.235 153.965,188.235 154.083 C 188.235 154.202,188.343 154.299,188.474 154.299 C 188.881 154.299,188.013 153.093,187.091 152.376 C 186.611 152.002,186.153 151.544,186.074 151.357 C 185.909 150.966,183.937 149.181,183.937 149.423 M210.057 155.260 L 209.163 156.222 210.124 155.327 C 211.019 154.496,211.190 154.299,211.019 154.299 C 210.982 154.299,210.549 154.731,210.057 155.260 M208.244 157.070 L 207.579 157.805 208.314 157.141 C 208.719 156.775,209.050 156.445,209.050 156.406 C 209.050 156.231,208.863 156.385,208.244 157.070 M205.985 159.333 L 205.090 160.294 206.052 159.400 C 206.946 158.568,207.118 158.371,206.946 158.371 C 206.909 158.371,206.477 158.804,205.985 159.333 M203.846 161.425 C 203.297 161.985,202.898 162.443,202.960 162.443 C 203.022 162.443,203.523 161.985,204.072 161.425 C 204.622 160.865,205.021 160.407,204.958 160.407 C 204.896 160.407,204.396 160.865,203.846 161.425 M201.909 163.405 L 201.244 164.140 201.980 163.476 C 202.384 163.110,202.715 162.779,202.715 162.740 C 202.715 162.566,202.528 162.720,201.909 163.405 M146.179 183.165 C 146.850 183.860,147.644 184.649,147.945 184.918 C 148.246 185.187,148.831 185.759,149.246 186.190 C 149.661 186.620,150.000 186.859,150.000 186.721 C 150.000 186.410,145.495 181.900,145.185 181.900 C 145.061 181.900,145.509 182.469,146.179 183.165 M152.376 188.914 C 153.240 189.785,153.998 190.498,154.060 190.498 C 154.122 190.498,153.466 189.785,152.602 188.914 C 151.737 188.043,150.979 187.330,150.917 187.330 C 150.855 187.330,151.511 188.043,152.376 188.914 M240.328 195.587 C 239.956 196.010,239.970 196.169,240.367 196.016 C 240.707 195.886,241.051 195.243,240.773 195.257 C 240.684 195.262,240.484 195.411,240.328 195.587 M229.336 206.818 C 226.495 209.684,224.214 212.072,224.267 212.125 C 224.366 212.224,234.842 201.886,234.842 201.690 C 234.842 201.333,233.983 202.132,229.336 206.818 " stroke="none" fill="#7c7c7c" fill-rule="evenodd"></path></g></svg>